<?xml version="1.0" standalone="no"?>
<!DOCTYPE svg PUBLIC "-//W3C//DTD SVG 20010904//EN"
 "http://www.w3.org/TR/2001/REC-SVG-20010904/DTD/svg10.dtd">
<svg version="1.0" xmlns="http://www.w3.org/2000/svg"
 width="678.000000pt" height="678.000000pt" viewBox="0 0 678.000000 678.000000"
 preserveAspectRatio="xMidYMid meet">
<metadata>
Created by potrace 1.11, written by Peter Selinger 2001-2013
</metadata>
<g transform="translate(0.000000,678.000000) scale(0.100000,-0.100000)"
fill="#000000" stroke="none">
<path d="M1865 6774 c-238 -22 -392 -130 -456 -321 -18 -55 -20 -81 -17 -181
4 -100 9 -127 32 -185 49 -116 153 -212 282 -258 82 -29 294 -32 407 -5 42 10
80 22 83 28 4 5 3 118 -1 249 l-7 239 -172 -2 -171 -3 -3 -51 c-2 -34 2 -55
11 -62 7 -6 53 -12 103 -14 l89 -3 3 -126 3 -127 -32 -11 c-117 -41 -328 22
-402 121 -81 107 -94 271 -31 403 75 161 309 231 503 152 35 -15 67 -24 72
-21 5 3 9 34 9 69 0 51 -4 66 -17 74 -42 21 -209 42 -288 35z"/>
<path d="M2865 6769 c-113 -22 -203 -88 -224 -166 -19 -69 -14 -145 15 -198
14 -27 33 -55 42 -62 44 -35 130 -87 164 -99 110 -38 178 -102 178 -166 0
-124 -139 -182 -311 -128 -34 10 -66 17 -71 14 -4 -3 -8 -34 -8 -69 l0 -64 73
-15 c106 -23 175 -26 242 -9 75 19 101 32 151 80 61 57 79 103 79 198 0 69 -4
85 -26 120 -40 61 -65 79 -200 151 -68 36 -132 73 -143 82 -31 28 -47 70 -41
105 8 41 22 59 65 86 43 26 101 27 199 5 40 -9 74 -14 76 -12 12 12 23 104 14
115 -23 27 -194 47 -274 32z"/>
<path d="M432 6758 c-9 -9 -12 -129 -12 -479 l0 -467 23 -6 c33 -9 100 -7 116
3 10 7 13 52 13 220 0 117 3 211 7 209 4 -2 43 -41 86 -88 44 -47 135 -143
203 -215 l124 -129 76 -3 c88 -3 114 3 110 23 -2 8 -68 81 -148 162 -80 81
-183 186 -230 234 l-84 88 218 219 c122 122 215 224 211 230 -3 6 -40 11 -88
11 l-81 0 -202 -207 -203 -208 0 196 c-1 138 -5 199 -13 207 -7 7 -35 12 -63
12 -28 0 -56 -5 -63 -12z"/>
<path d="M4159 6010 l-56 -5 -389 -394 c-214 -217 -670 -677 -1014 -1022
-1029 -1032 -1735 -1750 -1738 -1768 -3 -19 620 -646 643 -646 8 0 135 119
283 265 148 146 275 270 283 277 29 24 1789 1793 2379 2391 843 854 860 872
860 888 0 11 -28 14 -147 15 -823 4 -1056 3 -1104 -1z"/>
<path d="M5782 5955 c-16 -13 -445 -441 -953 -951 -1509 -1512 -1961 -1963
-2483 -2478 -273 -269 -498 -498 -502 -508 -5 -16 39 -64 210 -231 300 -295
425 -411 442 -415 13 -3 113 91 430 403 39 39 832 830 1762 1759 l1692 1689 0
372 0 373 -31 6 c-17 3 -145 6 -284 6 l-253 0 -30 -25z"/>
<path d="M408 5633 c-2 -5 -3 -1271 -3 -2815 l0 -2807 280 -3 c154 -2 1417 -4
2808 -6 l2527 -2 0 1358 c0 1043 -3 1361 -12 1370 -15 15 -74 16 -84 1 -3 -6
-6 -592 -5 -1302 1 -757 -2 -1298 -8 -1306 -7 -12 -274 -13 -1732 -10 -948 1
-2136 3 -2639 4 -503 1 -938 2 -967 3 l-52 2 -3 1482 c-1 816 -2 2032 -3 2703
l0 1220 1326 3 1326 2 6 36 c4 20 2 45 -4 55 -9 18 -55 19 -1384 19 -756 0
-1376 -3 -1377 -7z"/>
<path d="M6272 4868 c-104 -98 -1689 -1688 -2457 -2465 -341 -345 -749 -756
-907 -913 -210 -209 -288 -293 -288 -309 0 -23 54 -83 341 -376 71 -71 164
-166 208 -210 l81 -79 690 689 c379 380 945 943 1257 1253 313 309 706 701
876 869 l307 307 0 653 c0 584 -2 653 -16 653 -8 0 -50 -32 -92 -72z"/>
<path d="M860 2683 c-2 -331 1 -2227 3 -2230 3 -2 1914 -5 2225 -3 23 0 42 4
42 8 0 5 -125 132 -277 283 -153 151 -521 518 -818 816 -1004 1008 -1159 1163
-1167 1163 -4 0 -8 -17 -8 -37z"/>
</g>
</svg>
