<?xml version="1.0" encoding="UTF-8" standalone="no"?>
<svg
   xmlns:dc="http://purl.org/dc/elements/1.1/"
   xmlns:cc="http://creativecommons.org/ns#"
   xmlns:rdf="http://www.w3.org/1999/02/22-rdf-syntax-ns#"
   xmlns:svg="http://www.w3.org/2000/svg"
   xmlns="http://www.w3.org/2000/svg"
   xmlns:sodipodi="http://sodipodi.sourceforge.net/DTD/sodipodi-0.dtd"
   xmlns:inkscape="http://www.inkscape.org/namespaces/inkscape"
   class=""
   xml:space="preserve"
   width="1in"
   height="1in"
   style="shape-rendering:geometricPrecision; text-rendering:geometricPrecision; image-rendering:optimizeQuality"
   viewBox="-1000 -350 1500 3269"
   version="1.1"
   id="svg60"
   sodipodi:docname="logo_square.svg"
   inkscape:version="1.0.1 (3bc2e813f5, 2020-09-07)"><metadata
   id="metadata64"><rdf:RDF><cc:Work
       rdf:about=""><dc:format>image/svg+xml</dc:format><dc:type
         rdf:resource="http://purl.org/dc/dcmitype/StillImage" /><dc:title></dc:title></cc:Work></rdf:RDF></metadata><sodipodi:namedview
   pagecolor="#ffffff"
   bordercolor="#666666"
   borderopacity="1"
   objecttolerance="10"
   gridtolerance="10"
   guidetolerance="10"
   inkscape:pageopacity="0"
   inkscape:pageshadow="2"
   inkscape:window-width="1773"
   inkscape:window-height="1867"
   id="namedview62"
   showgrid="false"
   inkscape:zoom="10.5"
   inkscape:cx="48"
   inkscape:cy="48"
   inkscape:window-x="0"
   inkscape:window-y="0"
   inkscape:window-maximized="0"
   inkscape:current-layer="svg60" />
    <defs
   id="defs4">
        <style
   type="text/css"
   id="style2">
            <![CDATA[
            .fil3 {
                fill: #0E5499
            }

            .fil0 {
                fill: #000000
            }

            .fil2 {
                fill: #8E9FCC
            }

            .fil1 {
                fill: #A34E1C
            }
            ]]>
        </style>
    
        
    
            
            
            
            
            
            
            
        </defs>
    <g
   id="Ebene 1">
    </g>
    <g
   id="Hintergrund">
    </g>
    <g
   id="Hilfslinien anzeigen">
    </g>
    <path
   id="38496952"
   class="fil0"
   d="m -1287,404 h 961 v 47 h -914 V 2302 H 610 v -915 h 47 v 962 h -1944 z" /><path
   id="38497040"
   class="fil1"
   d="M -309,2152 -537,1924 779,607 v 457 z" /><path
   id="38497128"
   class="fil2"
   d="M -589,1872 -818,1643 551,275 h 228 v 228 z" /><path
   id="38497216"
   class="fil3"
   d="M -870,1591 -1098,1362 -11,274 446,275 Z" /><path
   id="38497304"
   class="fil0"
   d="m -344,2193 -786,-1 -1,-787 z" /><g
   id="g55">
                <path
   id="38500384"
   class="fil0"
   d="m -1239,6 h -48 v 334 h 48 v -131 0 c 0,-14 0,-21 -1,-34 13,15 24,28 31,36 v 0 l 121,129 h 68 L -1189,164 -1032,6 h -64 l -117,121 v 0 c -8,9 -13,15 -27,31 1,-12 1,-17 1,-40 v 0 z" />
                <path
   id="38500472"
   class="fil0"
   d="M -667,20 C -696,9 -724,4 -758,4 c -53,0 -97,15 -131,44 -35,30 -51,70 -51,123 0,105 71,172 182,172 36,0 64,-5 97,-16 v 0 -170 h -118 v 41 h 71 v 97 0 c -20,6 -29,7 -47,7 -38,0 -78,-15 -101,-39 -21,-22 -33,-56 -33,-92 0,-75 54,-127 134,-127 32,0 58,7 85,22 v 0 z" />
                <path
   id="38500560"
   class="fil0"
   d="m -343,12 c -24,-8 -47,-12 -73,-12 -63,0 -105,36 -105,91 0,42 21,68 74,91 v 0 l 19,9 v 0 c 36,16 51,34 51,59 0,34 -27,56 -68,56 -21,0 -40,-5 -66,-17 v 0 l -5,44 v 0 c 24,9 49,14 77,14 68,0 114,-41 114,-101 0,-43 -18,-66 -75,-94 v 0 l -18,-9 v 0 c -41,-20 -54,-34 -54,-57 0,-27 25,-46 60,-46 19,0 36,4 63,14 v 0 z" />
            </g>
</svg>
