<?xml version="1.0" encoding="UTF-8"?>
<svg id="Ebene_1" data-name="Ebene 1" xmlns="http://www.w3.org/2000/svg" viewBox="0 0 1179 1130">
  <defs>
    <style>
      .cls-1 {
        fill: #050506;
      }

      .cls-2 {
        fill: #010101;
      }

      .cls-3 {
        fill: #284a90;
      }

      .cls-4 {
        fill: #942021;
      }

      .cls-5 {
        fill: #304e8f;
      }

      .cls-6 {
        fill: #f7f8fa;
      }

      .cls-7 {
        fill: #3c3c3c;
      }

      .cls-8 {
        fill: #e2e2e2;
      }

      .cls-9 {
        fill: #27478c;
      }

      .cls-10 {
        fill: #942e38;
      }

      .cls-11 {
        fill: #a1a1a2;
      }

      .cls-12 {
        fill: #afb4d4;
      }

      .cls-13 {
        fill: #375292;
      }

      .cls-14 {
        fill: #afb3d3;
      }

      .cls-15 {
        fill: #b0b5d4;
      }

      .cls-16 {
        fill: #2a488e;
      }

      .cls-17 {
        fill: #982123;
      }

      .cls-18 {
        fill: #284990;
      }

      .cls-19 {
        fill: #28488f;
      }

      .cls-20 {
        fill: #294a91;
      }

      .cls-21 {
        fill: #adb2d3;
      }

      .cls-22 {
        fill: #545454;
      }

      .cls-23 {
        fill: #979797;
      }

      .cls-24 {
        fill: #fbfbfc;
      }

      .cls-25 {
        fill: #992224;
      }

      .cls-26 {
        fill: #070707;
      }

      .cls-27 {
        fill: #9a2224;
      }

      .cls-28 {
        fill: #294a90;
      }

      .cls-29 {
        fill: #fdfdfd;
      }
    </style>
  </defs>
  <path class="cls-29" d="M1179,0v1130H0V0h1179ZM374.5,152c4.41.96,11.7-.7,16.5,0,.28,5.48.51,11.06.98,16.52.12,1.43,1.8,6.78,1.03,7.48-.96.87-12.84-.78-15.24-1.26-4.9-.98-19.31-5.39-23.48-7.52-1.54-.79-10.14-6.69-11.24-7.76-2.31-2.27-8.73-17.48-9.07-20.93-2.15-21.93,3.06-43.35,24.75-52.29,13.6-5.6,31.29-10.11,44.98-2.44,6.68,3.75,7.79,8.89,16.6,4.02s8.52-14.64,7.7-24.32c-.75-8.96-3.61-11.66-11.33-15.67-14.76-7.68-45.84-8.94-61.97-5.6-32.23,6.68-59.37,38.69-61.73,71.27-.27,3.7.94,6.08,1.03,9,.37,11.98-.93,22.53,2.68,34.32,4.89,15.93,23.26,40.63,38.61,47.39,26.27,11.56,53.46,9.33,80.94,3.57,3.48-.73,9.8-2.2,11.8-5.2.99-1.49,2.77-8.03,2.97-10.03,1.39-13.69-.34-29.37-1.04-43-.39-7.49.06-16.45-1.21-23.79-1.44-8.32-10.45-10.24-17.51-11.49-7.01-1.24-17.76-2.89-24.71-3.29-8.56-.49-12.75.44-19.52,5.58-1.6,1.21-2.7,3.01-2.99,5.01-.53,3.61-.55,16.34.17,19.76.76,3.59,6.96,9.98,10.3,10.7ZM525.77,42.27c-18.46,1.32-40.49,9.86-47.79,28.21-5.44,13.68-4.7,19.12.53,32.52,4.92,12.62,13.67,22.46,24.57,30.43,8.24,6.03,26.67,13.37,31.77,20.23,1.1,1.49,5.79,9.67,5.94,10.99.13,1.09-.75,3.31-1.34,4.3-5.16,8.62-17.88,13.95-27.74,11.85-6.16-1.31-12.99-9.23-20.44-6.03-3.01,1.29-6.17,6.58-6.17,9.73,0,2.4,2.61,5.62,2.6,7-.01,1.25-2.24,4.96-2.19,8.01.09,5.17,4.14,10.26,9.21,11.29,13.55,2.76,28.93,2.79,42.54-.06,16.74-3.51,37.44-17.56,42.53-34.47,2.08-6.92.4-22.48-2.02-29.51-7.96-23.15-29.1-24.89-45.24-37.76-4.48-3.57-16.12-15.02-13.02-20.98.19-.36,3.31-4.31,3.54-4.48,3.63-2.67,16.86-5.03,21.41-4.47,5.73.71,8.93,6.02,14.08,6,1.3,0,10.05-3.22,11.04-4.01,2.76-2.21,3.85-10.1,4.37-13.63.43-2.96,1-7.93,1.14-10.88.25-5.5-1.37-9.51-7.01-11.08-13.1-3.66-28.66-4.17-42.28-3.19ZM178.72,48.27c-1.69-1.87-7.58-3.06-10.21-3.29-6.78-.59-21.4-.77-27.95.08-4.72.61-8.48,2.74-9.33,7.67-1.41,8.13.66,16.95.82,24.72.78,38.59.65,78.8,3.97,117.03.53,6.14-1.37,12.78,5.7,16.3,6.27,3.12,10.35-.48,16-1.57,3.6-.69,6.77-.01,10.73-1.26,10.06-3.18,5.73-13.9,5.5-21.4-.3-9.82.31-19.73.05-29.55,1.82,1.64,3.96,4.12,5.42,6.07,11.16,14.93,23.13,29.66,36.04,42.96,1.07,1.1,2.41,2.61,3.78,3.22,4.6,2.05,16.77,1.08,22.16.68,5.78-.43,9.21-.91,15.06-.9,12.89.02,18.39-4.73,10.97-16.97-22.79-19.09-39.84-42.91-57.3-66.69-.52-.86-1.18-1.85-1.15-2.87.04-1.23,5.76-8.74,6.98-10.01,7.96-8.26,17.99-19.06,26.5-26.5,3.75-3.28,9.23-6.17,12.55-9.45,1.99-1.97,7.68-9.78,8.7-12.29,3.07-7.55-1.94-12.78-9.29-14.17-1.52-.29-3.26.13-4.85-.15-16.48-2.84-27.79-6.33-40.11,8.07-7.74,9.04-16.89,17.23-24.47,26.53-2.43,2.98-3.89,7.15-7,9.49.14-2.81-.23-5.7-.02-8.52.64-8.92,2.53-18.01,3.06-26.93.19-3.13-.15-7.88-2.32-10.28ZM735,133c3.25-1.2,11.22-1.29,12.56-4.01.59-1.19-2.02-11.7-3.04-13.01-.93-1.2-3.36-.87-4.09-1.91-1-1.41.04-4.12-.53-4.97-.42-.62-4.46-.84-4.78-1.23-.59-.7.64-3.5-2.6-5.9-7.54-5.58-10.21-.93-17.06.98-5.48,1.53-12.79,1.78-17.74,4.26-17.6,8.83-37.58,13.75-53.22,25.78-.83.64-3.14,2.84-3.37,3.63-1.06,3.52,2.38,2.71,3.62,3.64.15.12,2.1,3.05,2.11,3.25.03.62-2.24,1.8-2.69,3.16-1.23,3.68.77,2.89,1.75,3.94.7.75,1.04,2.03,1.29,2.2.91.62,2.7-.24,3.61.38.26.18.57,1.47,1.28,2.22.5.53,1.63.49,1.82.71s-1.93,5.1-.91,5.88c.34.26,7.71,1.09,8.44,1.02,1.32-.13,6.5-3.08,8.57-4.02-2.85,12.43-7.33,24.44-10.73,36.77-3.82,13.9-6.76,26.49-11.27,40.23l-198,202c-17.31-10.12-34.05-21.13-51.32-31.18-11.06-6.44-23.03-11.42-34-18-7.14-4.28-13.79-9.91-20.76-14.24-14.44-8.98-25.8-15.05-39.43-25.57-18.76-14.48-39.69-25-58.42-38.58-5.9-4.28-11.26-9.5-17.16-13.84-6.38-4.7-14.39-8.69-20.4-13.6-8.69-7.1-16.61-18.72-24.51-26.99-.55-3.03,1.53-1.93,3.47-2,34.06-1.15,69-.81,102.98-1.05,92.12-.65,184.06-.7,276.1-1.9,6.56-.57,5.88-9.33,5.36-14.46-.25-2.42-.74-7.59-3.4-7.6l-423.88,4.15c-3.76,1.2-2.8,14.63-2.66,18.38,1.18,30.28.69,60.57,1.02,90.98.02,1.67-.7,4.55,1,5.5-4.04,23.64-9.94,47.12-13.74,70.76-1.05,6.51-3.69,20.38,7.05,19.95,2.05-.08,7.35-3.06,7.68-2.71,1.09,1.14-.15,27.08-.04,31.54,1.83,75.1,2.4,150.78,3.1,225.9,1.25,134.12,1.55,268.02,2.9,402.1-.09,1.98.9,3.51,2.72,4.28l862.34-8.32c1.64-1.01,1.84-2.18,2.04-3.96,2.25-20.55-1.82-45.1,0-66.1-3.98-108.78-.07-218.11-3-327-.33-12.3-1.6-24.54-2.1-36.9-.39-9.69,1.55-18.56,2.07-28.03.57-10.44,1.07-27.96.01-38.05-.42-4.07-3.71-7.39-7.03-9.47-.46-2.34.75-3.04,1.98-4.52,3.29-3.95,7.97-7.58,11.52-11.47,1.11-1.22,2.63-2.02,2.5-4.01,7.5-.68,16.61-4.21,24.59-4.91,7.21-.64,16.13.92,22.88-.12,4.71-.72,7.7-1.43,13.04-1.96,11.07-1.1,11.56-7.48-.51-6.02.58-2.64,4.47-1.46,5.55-2.94.47-.64.74-2.78.45-3.04-1.9-1.73-11.56-1.59-12-2.01-1.93-1.86,1.72-2,1.81-2.14,2.85-4.48-6.85-4.59-8.81-4.86l-.65-.84c-.77-.27-1.56-.14-2.35-.16v-1c2.01-.22,7.01-.58,7.01-3.5,0-4.21-10.33-2.94-11.01-3.51-3.26-2.71,5.74-1.77,6-2,.15-.13.14-3.86,0-4-.19-.17-1.39.08-2,0l.02-52.52-2.02-14.48v-2c.1-.11-.16-1.76.51-2.95,19.46-34.7,41.91-67.82,64.47-100.57,8.31-4.56,19.66-21.31,16.57-30.54-1.13-3.38-6.59-6.9-10.06-7.02-2.24-.08-4.07,1.13-6,1.14-4.18.04-36.75-16.29-43.8-19.25-9.83-4.14-19.87-7.67-29.69-11.81-.55-4.91,6.13-5.95,6.05-10.45-.43-29.35.85-58.85-1.07-88.03-.18-2.65.87-11.88-.92-13.08-1.52-1.02-31.89-.58-36.61-.49-2.43.05-4.49,1.06-6.9,1.1-18.27.26-36.57-.47-54.84.16-5.4,3.37-9.83,8.22-14.25,12.78-7.26,7.49-14.88,15.27-21.96,23.01-1.12,1.22-2.63,2.02-2.5,4.01-8.58-4.85-20.09-11.1-29-15-.46-2.34.75-3.04,1.98-4.52,3.9-4.68,12.12-10.16,14.02-15.48,1.82-1.66,4.96-1.46,3.99-4.49s-3.76-.53-3.99-.51c-1.96.17-4.04-.18-6,0-.95-1.7-3.83-.99-5.5-1-21.68-.2-43.37.19-65.05-.05l-9.45,1.05c-24.42-8.98-46.9-17.74-71.79-25.71-5.64-1.81-13.93-6.4-19.21-7.29v-2Z"/>
  <path class="cls-26" d="M144,348c4.81-28.16,2.38-69.15.98-98.48-.11-2.23-.47-13.25,1.64-13.57,16.96-.15,33.96.35,50.93.1,111.87-1.7,224.06-1.83,335.9-4.1,4.41-.09,32.21-.45,33.61.49,1.2.8,1.47,14.04.94,14.56-1.22,1.22-30.2-.9-34.55-.05-111.37,4.09-223.65-.61-334.93,4.07-2.9.12-17.84-.64-18.52-.02-1.47,1.35,3.37,4.34,4,5,7.9,8.28,15.82,19.9,24.51,26.99,6.01,4.91,14.02,8.89,20.4,13.6,5.9,4.35,11.26,9.56,17.16,13.84,18.73,13.58,39.66,24.09,58.42,38.58,13.63,10.52,24.99,16.59,39.43,25.57,6.97,4.33,13.62,9.96,20.76,14.24,10.97,6.58,22.94,11.56,34,18,17.26,10.06,34,21.07,51.32,31.18,29.02,16.96,55.97,34.61,86.79,47.71,16.13,6.86,32.84,14.37,48.21,20.29,11.79,4.54,23.23,8.06,35,12,12.43,4.16,25.38,8.31,37.99,12.51,12.09,4.02,23.52,9.65,35.78,13.22,28.15,8.2,57.49,11.73,86.23,16.27,13.27,2.1,24.77,5.31,39,7,47.92,5.68,96.04,11.6,144.45,14.05,8.02.41,29.56,2.13,36.04.95,3.82-.7,2.65-3.66,8.51,0,3.32,2.08,6.61,5.4,7.03,9.47,1.05,10.09.56,27.61-.01,38.05-.52,9.46-2.45,18.34-2.07,28.03.49,12.36,1.76,24.61,2.1,36.9,2.93,108.89-.98,218.22,3,327-1.81,21,2.25,45.55,0,66.1-.19,1.78-.4,2.95-2.04,3.96l-862.34,8.32c-1.83-.76-2.81-2.29-2.72-4.28-1.35-134.08-1.65-267.98-2.9-402.1-.7-75.13-1.27-150.8-3.1-225.9-.11-4.46,1.14-30.41.04-31.54-.33-.35-5.63,2.63-7.68,2.71-10.74.43-8.1-13.44-7.05-19.95,3.8-23.65,9.7-47.12,13.74-70.76ZM162.99,271c-.12-3.45,2.88-8.16,1.89-11.36-.37-1.19-2.34-2.24-2.88-1.64-.32.35-.03,7.96,0,9.5.02,1.2-.74,3.73.99,3.49ZM190.39,287.65c-4.17-4.42-7.35-10.11-12.39-13.65-2.81,14.5-8.42,28.41-11.77,42.73-6.05,25.84-9.24,52.68-14.48,78.52-.5,2.47-4.41,16.03-3.75,16.74.77.83,7.68-4.89,9.52-4.97,25.8-18.77,53.07-32.73,82.1-45.9,7.25-3.29,10.8-5.5,17.13-9.06,4.17-2.34,8.88-4.12,13.24-6.08.36-.28.18-1.35-.64-2.03-8.62-7.16-19.44-11.76-28.68-18.13-8.58-5.92-16.27-13.17-24.74-19.26-9.3-6.69-17.32-10.19-25.54-18.91ZM293.65,360.39c-1.5-1.29-9.27-7.87-10.64-6.39-.78.83-2.6,11.07-3.27,13.24-2.58,8.34-5.2,13.92-5.79,23.21-1.86,29.32,2.42,60.28,1.1,90.1-.1,2.33-2.11,11.31-1.04,12.45.82.88,9.14-5.12,11.23-5.07,13.89-9.92,30.07-14.24,44.04-23.95,17.74-12.33,38.77-20.76,57.91-30.25,4.16-2.06,8.38-4.31,12.82-5.74.49-1.7-.02-1.31-.68-1.97-.4-.4-1.89-1.95-2.01-2.02-12.08-7.58-26.71-13.49-39.2-20.61-7.63-4.35-13.68-9.61-20.77-14.23-12.17-7.93-27.91-14.48-38.61-23.19-1.61-1.31-3.47-4.19-5.08-5.58ZM167,420c-.92.57-2.91.73-3.05,1.62.31,27.63-.22,55.29,0,82.92,1.23,149.2,3.77,298.7,5.1,447.9.32,36.4-.55,72.77.97,109.03.12,2.86-.64,17.84.06,18.45.17.15,4.02,1.02,4.49,1.01.95-.01,1.35-.94,1.43-.94,2.65-.08,5.34.02,8,0,222.55-1.78,445.04-2.76,667.45-6.05,13.51-.2,27.05.31,40.55.05,12.21-.24,24.38-1.62,36.45-2.05,21.64-.77,43.44.63,65.1.1,2.32.07,4.06-1.25,4.45-3.55.79-4.78.18-14.69.02-20.01-2.22-74.32-2.42-149.55-3.07-223.93-.3-34.41,1.91-71.06.1-105.1-.18-3.47-1.69-6.78-1.05-10.45-1.42.03-1.93,2.81-2.47,4.03-5,11.3-8.07,25.68-17.08,34.92-1.36,1.39-4.99,3.21-6.89,3.07-1.19-.08-7.35-3.64-8.53-4.55-3.37-2.6-4.4-8.91-6.29-12.71-11.99-24.15-17.49-44.45-25.74-69.76-.32-.99-.89-1.67-1-2-5.14-15.76-10.03-30.73-16.3-45.75-1.1.23-2.45-3.87-3.69-2.25-.41.54-1.14,3.93-2.02,5.3-1.24,1.93-4.78,5.14-6.94,8.22-7.89,11.25-18.14,20.11-25.13,31.72-.94,1.57-5.71,8.66-5.92,9.46-2.82,11.07-11.24,16.34-17.98,26.01-3.89,5.59-4.56,10.05-6.03,16.62-.41,1.81-6.69,7.64-7.96,9.4-1.37,1.9-4.11,7.84-6.28,8.98-.7.37-6.82,2.68-7.7,2.88-6.92,1.61-9.22-3.18-11.76-8.37-3.34-6.81-4.98-12.41-6.26-19.6-.15-.83-1.89-.42-2.06-1.23-.65-3.24-1-6.46-1.76-10.1-6.21-29.76-10.84-59.66-15.21-89.29-.09-.64.1-1.36,0-2-.26-1.73-1.66-10.56-2-11-.89-1.12-6.69,5.14-8.02,5.48-16.72,13.97-27.08,32.74-42,48-11.5,11.76-17.76,19.19-25.98,33.52-2.14,3.73-4.65,7.4-7,11-2.22,2.12-3.96,6.02-6.04,8.26-3.45,3.71-9.61,10.19-13.96,11.74-.59.21-2.89.7-4,1-3.49.94-5.73,2.01-9.37-.13-5.39-3.16-4.85-18.07-5.63-23.87-.22-1.63-.98-2.84-1-3-4.72-37.76-3.62-74.27-7.02-111.48-.23-2.48.51-8.77-.98-10.52-.8-.94-11.57,7.47-13.33,8.17-16.51,14.3-35.88,24.98-53.59,37.41-6.19,4.34-10.89,10.57-17.13,14.87-3.79,2.61-8.53,4.35-12.25,6.75-9.87,6.34-18.84,13.81-28.35,20.64-13.28,2.69-12.05-12.91-12.33-21.82-.5-15.96.9-30.28,2-46,1.3-18.5,1.83-37.3,5.01-55.49l-.51-14.51c-3.24.97-4.8,3.53-7.56,5.44-9.87,6.83-21.81,10.92-31.23,17.57-20.38,14.38-39.85,31.71-63.99,40.03-.27.09-3.06,1.79-4.63,2.52-3.34,1.55-11.34,6.56-13.79,7.23-1.45.4-9.31.53-10.11-.03-.26-.18-.18-1.14-.51-1.39-1-.76-2.68-1.38-3.2-2.35-.93-1.75-.81-28.44-.52-32.58,1.08-15.51,4.11-32.1,6.05-47.45,2.18-17.22,4.22-34.6,7.84-51.67.34-1.61.29-1.42-1.35-1.35-9.81,4.31-19.16,9.57-28.8,14.2-6.12,2.94-13.61,5.03-19.6,8.4-7.95,4.47-14.2,11.42-22.4,15.6-13.97,7.13-28.24,12.5-42,21-6.41,3.96-15.12,17.76-22.71,9.34-2.01-2.23-2.81-9.64-3.02-12.98-.43-6.74.96-12.85,1.1-19,.48-22.28-.22-45.04,0-67,.13-12.43-1.65-23.2.04-35.96.29-2.21,3.33-11.16,2.91-11.58-.55-.57-12.43,5.82-14.69,5.8-18.87,8.43-36.82,18.1-54.99,28.01-9.69,5.28-16.52,11.69-25.32,17.18ZM514,493.01l-98.48-56.01c-2.38.49-1.33,8.06-1.6,10.42-2.04,17.96-5.64,36.06-7.94,54.06-2.03,15.94-5.15,33.07-6,49-.1,1.97-.44,13.03.02,13.52,1.19,1.25,28.34-12.41,31.31-14.18,14.51-8.65,29.43-21.81,43.76-31.24,9.14-6.01,19.02-9.27,28.25-15.75,2.3-1.62,8.17-5.56,9.7-7.3.57-.65,1.57-1.99.97-2.52ZM645,543l-19.24-5.26c-18.6-7.33-38.04-12.76-56.45-20.55-4.15-1.76-31.59-15.92-33.31-14.19-.79.8.31,19,.01,22.51-1.96,22.64-4.6,45.2-5.99,68.01-.45,7.39-1.11,13.47-1.01,20.95.02,1.73-.34,10.13,0,10.53.7.83,11.92-7.75,13.68-8.82,7.2-4.39,13.51-7,20.34-12.66,3.16-2.62,6.48-7.13,9.69-9.51,6.37-4.73,14.52-7.67,21.22-12.59,10.25-7.52,20.56-16.09,30.79-23.41,5.61-4.02,13.59-7.85,18.62-12.18.64-.55,2.75-1.9,1.66-2.83ZM772,576.01c-3.11.46-5.68-1.46-8.55-1.95-30.53-5.19-61.34-10.07-90.66-20.34-1.47-.51-7.09-4.62-7.77-1.17-.13.66.83,2.03.9,3.03,1.81,26.29,2.39,52.7,4.1,78.9,1.02,15.5,2.35,30.53,4,46,.49,4.61-.75,14.76,5.94,6.78,7.14-8.51,11.98-18.87,18.01-27.97,8.1-12.22,18.63-21.76,28.02-32.59,5.62-6.48,9.68-12.35,14.87-19.35,6.88-9.28,16.34-17.19,25.15-24.82,2.08-1.8,4.38-4.27,5.98-6.51ZM900,592l-104-12c-1.18,5.18,1.03,9.34,1.78,13.71,6.58,38.37,9.91,77,21.74,114.26.43,1.34.6,2.63.48,4.02,8.8-4.96,7.36-16.06,12.33-23.7,4.17-6.41,12.54-12.93,16.69-19.78s5.96-14.99,10.99-21.81c7.89-10.69,18.01-20.96,25.96-31.44,3.4-4.49,12.35-15.26,13.83-19.97.24-.77.39-3.13.2-3.3ZM990.98,598.02l-72.97-4.02c4.04,12.85,10.33,24.91,15.02,37.47,9.54,25.53,15.31,52.39,25.21,77.79,2.53,6.5,5.89,12.43,8.77,18.74.91,0,1.55.53,2.03-.61,4.59-10.88,6.1-22.95,11.22-33.63,2.51-5.23,7-14.43,9.89-19.11.93-1.51,2.81-2.58,3.35-3.64,1.99-3.88-2.43-12.83-2.56-17.54-.18-6.09,1.29-13.95,1.08-20.99-.28-9.28-.1-18.74-1.04-27.96-.14-1.4.3-6.26,0-6.5Z"/>
  <path class="cls-28" d="M648,236c-1.73,5.26-3.58,10.63-5.52,16-5.29,14.61-9.87,31.72-14.69,47.29-1.55,5.03-4.16,10.41-5.55,15.45-2.39,8.63-2.32,16.01-2.29,24.71.01,3.49-.48,8.84,0,11.93.06.41,6.18,3.31,7.34,3.83,24.15,10.72,47.83,22.42,71.71,33.79l-114,117c-15.37-5.92-32.08-13.43-48.21-20.29-30.82-13.1-57.77-30.75-86.79-47.71l198-202Z"/>
  <path class="cls-27" d="M374.5,152c-3.34-.73-9.54-7.11-10.3-10.7s-.69-16.15-.17-19.76c.29-2,1.39-3.8,2.99-5.01,6.78-5.13,10.96-6.07,19.52-5.58,6.95.4,17.71,2.05,24.71,3.29,7.06,1.25,16.07,3.17,17.51,11.49,1.27,7.34.82,16.3,1.21,23.79.7,13.63,2.43,29.31,1.04,43-.2,2-1.98,8.53-2.97,10.03-2,3.01-8.32,4.47-11.8,5.2-27.48,5.76-54.67,8-80.94-3.57-15.35-6.76-33.73-31.46-38.61-47.39-3.61-11.78-2.32-22.34-2.68-34.32-.09-2.92-1.3-5.29-1.03-9,2.36-32.58,29.49-64.59,61.73-71.27,16.13-3.34,47.21-2.09,61.97,5.6,7.72,4.02,10.58,6.71,11.33,15.67.81,9.68,1.5,19.24-7.7,24.32s-9.92-.27-16.6-4.02c-13.68-7.68-31.38-3.17-44.98,2.44-21.69,8.94-26.91,30.36-24.75,52.29.34,3.45,6.77,18.66,9.07,20.93,1.09,1.08,9.69,6.97,11.24,7.76,4.17,2.13,18.58,6.54,23.48,7.52,2.4.48,14.28,2.13,15.24,1.26.77-.7-.9-6.04-1.03-7.48-.47-5.46-.69-11.04-.98-16.52-4.8-.7-12.09.96-16.5,0Z"/>
  <path class="cls-12" d="M178.72,48.27c2.17,2.39,2.51,7.15,2.32,10.28-.53,8.92-2.43,18.01-3.06,26.93-.2,2.82.17,5.71.02,8.52,3.11-2.34,4.57-6.52,7-9.49,7.58-9.3,16.73-17.49,24.47-26.53,12.32-14.39,23.63-10.9,40.11-8.07,1.59.27,3.33-.14,4.85.15,7.35,1.39,12.36,6.61,9.29,14.17-1.02,2.51-6.72,10.32-8.7,12.29-3.31,3.29-8.79,6.17-12.55,9.45-8.51,7.44-18.54,18.24-26.5,26.5-1.22,1.27-6.94,8.78-6.98,10.01-.03,1.02.63,2.01,1.15,2.87,17.45,23.79,34.51,47.6,57.3,66.69,7.42,12.23,1.92,16.99-10.97,16.97-5.86,0-9.28.47-15.06.9-5.39.4-17.55,1.37-22.16-.68-1.37-.61-2.72-2.12-3.78-3.22-12.92-13.29-24.88-28.02-36.04-42.96-1.46-1.95-3.61-4.43-5.42-6.07.26,9.82-.35,19.72-.05,29.55.23,7.5,4.56,18.23-5.5,21.4-3.96,1.25-7.13.57-10.73,1.26-5.65,1.08-9.73,4.68-16,1.57-7.07-3.52-5.17-10.16-5.7-16.3-3.33-38.22-3.19-78.44-3.97-117.03-.16-7.77-2.23-16.6-.82-24.72.86-4.93,4.61-7.05,9.33-7.67,6.55-.85,21.18-.67,27.95-.08,2.63.23,8.52,1.42,10.21,3.29ZM159,155h-1v35h1v-35Z"/>
  <path class="cls-1" d="M732,135c.87-.07,2.2-.13,3,0,5.28.89,13.57,5.48,19.21,7.29,24.88,7.97,47.37,16.73,71.79,25.71,2.96,1.09,6.11,1.96,9,3,19.98,7.22,41.66,13.55,61,22,8.91,3.9,20.42,10.15,29,15,30.14,17.05,60.11,38.51,91.31,53.19,13.46,6.33,27.95,12.02,41.69,17.81,9.82,4.14,19.86,7.67,29.69,11.81,7.05,2.96,39.62,19.29,43.8,19.25,1.93-.02,3.76-1.22,6-1.14,3.47.12,8.93,3.64,10.06,7.02,3.08,9.23-8.26,25.98-16.57,30.54-22.56,32.75-45.01,65.87-64.47,100.57-.67,1.19-.41,2.84-.51,2.95-4.51,5.15-7.97,10.69-11.43,18.09-5.57,11.88-8.84,19.36-16.55,30.62-2.21,3.23-5.5,7.44-6.02,11.29-5.84.68-15.88,3.47-22,5,.7-2.97,2.34-6.01,3.82-8.68,29.2-53.01,61.85-105.48,94.34-156.66,2.14-3.37,16.29-22.11,15.85-24.14-.3-1.41-10.35-4.01-11.99-6.03-78.62-29.85-152.68-70.21-228.31-106.69-44.75-21.58-97.37-39.96-144.15-57.85-11.07-4.23-22.85-6.94-33.55-11.95,6.83-2.92,18.85-7.45,26-8Z"/>
  <path class="cls-19" d="M525.77,42.27c13.62-.97,29.17-.47,42.28,3.19,5.65,1.58,7.26,5.58,7.01,11.08-.14,2.95-.71,7.92-1.14,10.88-.51,3.54-1.61,11.42-4.37,13.63-.99.79-9.74,4.01-11.04,4.01-5.14.02-8.35-5.28-14.08-6-4.54-.57-17.77,1.8-21.41,4.47-.24.17-3.36,4.12-3.54,4.48-3.1,5.96,8.54,17.41,13.02,20.98,16.14,12.87,37.28,14.61,45.24,37.76,2.41,7.03,4.1,22.58,2.02,29.51-5.08,16.92-25.79,30.96-42.53,34.47-13.61,2.86-28.98,2.83-42.54.06-5.07-1.03-9.12-6.12-9.21-11.29-.05-3.04,2.18-6.75,2.19-8.01.01-1.38-2.6-4.6-2.6-7,0-3.15,3.16-8.44,6.17-9.73,7.45-3.19,14.28,4.72,20.44,6.03,9.86,2.1,22.58-3.23,27.74-11.85.59-.99,1.47-3.21,1.34-4.3-.15-1.32-4.84-9.5-5.94-10.99-5.1-6.86-23.54-14.2-31.77-20.23-10.89-7.97-19.65-17.82-24.57-30.43-5.23-13.4-5.97-18.85-.53-32.52,7.3-18.35,29.33-26.89,47.79-28.21Z"/>
  <path class="cls-15" d="M1058,279c-13.73-5.79-28.23-11.48-41.69-17.81-31.2-14.68-61.17-36.14-91.31-53.19-.13-1.99,1.38-2.79,2.5-4.01,7.08-7.74,14.7-15.52,21.96-23.01,4.42-4.56,8.85-9.41,14.25-12.78,18.27-.63,36.57.11,54.84-.16,2.42-.03,4.48-1.05,6.9-1.1,4.72-.09,35.09-.53,36.61.49,1.79,1.2.75,10.43.92,13.08,1.93,29.18.64,58.68,1.07,88.03.08,4.5-6.6,5.53-6.05,10.45Z"/>
  <path class="cls-1" d="M701,146c-.18.38.14,1.43-.24,2.24-10.17,21.21-17.93,44.74-26.25,66.76-4.56,12.07-10.9,25.29-14.55,37.45-2.75,9.2-3.51,19.35-6.22,28.78-5.39,18.76-15.79,36.61-21.28,54.71-1.77,5.84-.36,4.19,2.52,5.52,42.73,19.85,85.1,40.72,127.33,61.71,37.45,18.62,74.54,38.16,111.39,57.61,27.2,14.35,51.55,28.62,77.95,44.05,10.57,6.18,21.98,10.72,32.35,17.15-.11.09.56,1.56-.69,1.99-5.43,1.88-12.31,2.15-17.31,5.01-3.57-1.74-7.79-3.25-11.25-5.07-14.73-7.73-30.32-19.31-45.51-27.86-4.58-2.58-10.86-4.74-15.24-7.08-10.1-5.39-20.74-10.61-31-16-44.68-23.49-87.36-46.99-133-69-10.32-4.98-20.64-10.06-31-15-23.88-11.37-47.56-23.07-71.71-33.79-1.17-.52-7.28-3.42-7.34-3.83-.48-3.08.01-8.44,0-11.93-.03-8.7-.1-16.08,2.29-24.71,1.4-5.04,4-10.42,5.55-15.45,4.81-15.58,9.4-32.68,14.69-47.29,1.94-5.37,3.79-10.74,5.52-16,4.52-13.74,7.45-26.33,11.27-40.23,3.39-12.34,7.87-24.34,10.73-36.77,4.67-2.12,24.14-10.23,26.05-12.26,1.44-1.54,3.25-.52,4.95-.74Z"/>
  <path class="cls-25" d="M894,489c4.38,2.34,10.66,4.5,15.24,7.08,15.19,8.55,30.78,20.12,45.51,27.86,3.46,1.82,7.69,3.32,11.25,5.07-1.33.76-2.27,2.96-2.63,3.03-3.91.71-5.54,1.39-8.68,1.97-.96.18-.46,1.84-1.37,2.03-.99.21-3.07-.28-3.33-.02s.22,2.34.02,3.33-2.87-.13-2.06,4.09c.14.72,1.87.31,2.04,1.27.98,5.41.85,2.19,1.99,3.31.25.24-.17,3.1,0,4-.6.1-1.84-.17-2,0-.32.34-.23,8.3-.01,9.36.04.19,2.53,2.62,2.71,2.66.99.22,3.04-.25,3.3-.01.34.31-.35,3.59,0,4.01.24.29,4.12-.29,5.39-.03.81.17.41,1.88,1.23,2.05,1.31.27,7.46.27,8.77,0,.82-.17.41-1.88,1.23-2.05,2.01-.42,4.77.47,6.77.05.81-.17.41-1.88,1.23-2.05,2.01-.42,4.77.47,6.77.05.81-.17.41-1.89,1.23-2.05,5.09-1.05,13.68,1.1,18.77.05.82-.17.41-1.89,1.23-2.05,4-.82,10.81.44,15.39.03.13,1.99-1.38,2.79-2.5,4.01-3.56,3.89-8.23,7.52-11.52,11.47-1.23,1.48-2.44,2.18-1.98,4.52-5.86-3.67-4.69-.7-8.51,0-6.48,1.19-28.02-.54-36.04-.95-48.41-2.45-96.54-8.37-144.45-14.05l75-78Z"/>
  <path class="cls-16" d="M1032,510c2.58-.3,11.16-.48,13.39-.03.82.17.41,1.88,1.23,2.05,2.01.42,4.77-.47,6.77-.05.82.17.41,1.9,1.22,2.06,1.47.28,3.24-.33,4.76-.05.42.08,2.48,3.48,2.91,3.74,1.11.65,2.06.09,2.73.28.84.24,1.1.75,3,1,.61.08,1.81-.17,2,0,.15.13.15,3.86,0,4-.26.23-9.27-.71-6,2,.68.56,11-.71,11.01,3.51,0,2.91-5,3.28-7.01,3.5-.91.1-8.25-.07-6,.99.71.34,2.86-.21,4,0,.16.03.65.86,1.56.97,1.2.14,2.43-.11,3.44.03,1.96.27,11.66.38,8.81,4.86-.09.14-3.74.28-1.81,2.14.44.42,10.1.28,12,2.01.29.27.02,2.4-.45,3.04-1.08,1.48-4.97.3-5.55,2.94,12.08-1.46,11.59,4.92.51,6.02-5.34.53-8.33,1.23-13.04,1.96-6.75,1.03-15.67-.52-22.88.12-7.98.71-17.08,4.23-24.59,4.91-4.58.41-11.38-.85-15.39-.03-.82.17-.41,1.89-1.23,2.05-5.09,1.05-13.68-1.1-18.77-.05-.82.17-.41,1.88-1.23,2.05-2.01.42-4.77-.47-6.77-.05-.81.17-.41,1.88-1.23,2.05-2.01.42-4.77-.47-6.77-.05-.81.17-.41,1.88-1.23,2.05-1.31.27-7.46.27-8.77,0-.82-.17-.41-1.89-1.23-2.05-1.27-.26-5.16.33-5.39.03-.34-.43.35-3.7,0-4.01-.26-.23-2.31.24-3.3.01-.19-.04-2.67-2.47-2.71-2.66-.22-1.05-.31-9.02.01-9.36.16-.17,1.4.1,2,0,2.71-.44,1.25-.5,2.37-1.64.65-.66,1.43.05,1.64-.87.56-2.44-1.9-1.31-4-1.49-1.14-1.13-1.01,2.1-1.99-3.31-.17-.95-1.9-.55-2.04-1.27-.81-4.21,1.86-3.14,2.06-4.09s-.28-3.07-.02-3.33,2.34.23,3.33.02c.91-.19.41-1.85,1.37-2.03,3.14-.58,4.77-1.26,8.68-1.97.35-.06,1.3-2.27,2.63-3.03,5-2.86,11.89-3.14,17.31-5.01,1.24-.43.57-1.89.69-1.99,1.05-.85,22.53-6.13,26-7,6.12-1.53,16.16-4.32,22-5ZM1032,554c-2.63-.03-7.19-.48-9.39-.03-.82.17-.41,1.88-1.23,2.05-1.62.33-6.87-.46-7.38-.02-1.32,1.12-.15,1.92,1.48,2,2.07.1,11.55.33,12.33-.24.26-.19.07-1.23.85-1.74.39-.26,1.11.15,1.34-.02l10-1.01c.23-1.74-2.32-.97-3.53-.99-1.49-.03-2.98.02-4.47,0Z"/>
  <path class="cls-25" d="M670,159c-2.07.94-7.25,3.89-8.57,4.02-.72.07-8.1-.76-8.44-1.02-1.02-.77,1.11-5.65.91-5.88s-1.32-.18-1.82-.71c-.71-.76-1.02-2.05-1.28-2.22-.91-.62-2.69.24-3.61-.38-.25-.17-.6-1.45-1.29-2.2-.98-1.05-2.98-.26-1.75-3.94.45-1.35,2.72-2.54,2.69-3.16,0-.19-1.96-3.13-2.11-3.25-1.24-.93-4.68-.11-3.62-3.64.24-.79,2.55-3,3.37-3.63,15.64-12.03,35.62-16.95,53.22-25.78,4.95-2.48,12.27-2.73,17.74-4.26,6.85-1.91,9.52-6.55,17.06-.98,3.24,2.4,2.01,5.19,2.6,5.9.32.39,4.36.6,4.78,1.23.57.84-.47,3.56.53,4.97.73,1.03,3.16.71,4.09,1.91,1.02,1.31,3.63,11.82,3.04,13.01-1.34,2.72-9.31,2.81-12.56,4.01-1.15.42-2.34.86-3,2-7.15.55-19.17,5.08-26,8-2,.86-3.74.27-5,3-1.71.22-3.51-.8-4.95.74-1.9,2.03-21.38,10.14-26.05,12.26Z"/>
  <path class="cls-22" d="M144,348c-1.7-.95-.98-3.83-1-5.5-.32-30.41.16-60.71-1.02-90.98-.15-3.75-1.1-17.18,2.66-18.38l423.88-4.15c2.66.02,3.15,5.18,3.4,7.6.52,5.13,1.2,13.89-5.36,14.46-92.04,1.21-183.98,1.25-276.1,1.9-33.98.24-68.92-.11-102.98,1.05-1.95.07-4.02-1.03-3.47,2-.63-.66-5.46-3.65-4-5,.68-.63,15.61.14,18.52.02,111.28-4.67,223.57.02,334.93-4.07,4.35-.85,33.33,1.27,34.55.05.52-.52.26-13.76-.94-14.56-1.4-.93-29.2-.58-33.61-.49-111.85,2.26-224.04,2.39-335.9,4.1-16.96.26-33.96-.25-50.93-.1-2.11.31-1.74,11.34-1.64,13.57,1.4,29.33,3.83,70.32-.98,98.48Z"/>
  <path class="cls-27" d="M1066,450v2c0,20.15.18,40.34,0,60.5-.02,1.67.7,4.55-1,5.5-.66-.19-1.61.37-2.73-.28-.44-.26-2.49-3.66-2.91-3.74-1.51-.28-3.29.33-4.76.05-.8-.15-.4-1.89-1.22-2.06-2.01-.42-4.77.47-6.77.05-.81-.17-.41-1.89-1.23-2.05-2.22-.46-10.8-.28-13.39.03.51-3.84,3.8-8.06,6.02-11.29,7.71-11.26,10.98-18.74,16.55-30.62,3.47-7.4,6.92-12.94,11.43-18.09Z"/>
  <path class="cls-13" d="M906,168c1.96-.18,4.04.17,6,0,1.64,2.03.67,3.12,0,5-1.9,5.32-10.12,10.8-14.02,15.48-1.23,1.48-2.44,2.18-1.98,4.52-19.34-8.45-41.02-14.78-61-22,1.71-1.19,5.42-1.87,7.48-2.02,21.01-1.53,42.4.98,63.52-.98Z"/>
  <path class="cls-22" d="M906,168c-21.12,1.97-42.5-.54-63.52.98-2.06.15-5.78.82-7.48,2.02-2.89-1.04-6.04-1.91-9-3l9.45-1.05c21.68.24,43.37-.15,65.05.05,1.67.02,4.55-.7,5.5,1Z"/>
  <path class="cls-23" d="M1068,519c-1.9-.25-2.16-.76-3-1,1.7-.95.99-3.83,1-5.5.18-20.16,0-40.35,0-60.5l2.02,14.48-.02,52.52Z"/>
  <path class="cls-22" d="M912,168c.24-.02,3.02-2.56,3.99.51s-2.18,2.83-3.99,4.49c.67-1.88,1.64-2.97,0-5Z"/>
  <path class="cls-21" d="M1068,532v1c-.67-.02-1.33.01-2,0-1.14-.21-3.29.33-4,0-2.26-1.07,5.08-.9,6-.99Z"/>
  <path class="cls-14" d="M1068,533c.79.02,1.58-.11,2.35.16l.65.84c-1-.14-2.24.11-3.44-.03-.91-.11-1.41-.94-1.56-.97.67.01,1.33-.02,2,0Z"/>
  <path class="cls-22" d="M735,135c-.8-.13-2.13-.07-3,0,.66-1.14,1.85-1.58,3-2v2Z"/>
  <path class="cls-24" d="M167,420c8.8-5.49,15.63-11.9,25.32-17.18,18.17-9.91,36.12-19.58,54.99-28.01,2.26.02,14.14-6.37,14.69-5.8.42.43-2.62,9.38-2.91,11.58-1.69,12.76.09,23.53-.04,35.96-.23,21.96.48,44.72,0,67-.13,6.15-1.53,12.26-1.1,19,.21,3.34,1.01,10.75,3.02,12.98,7.6,8.42,16.3-5.39,22.71-9.34,13.76-8.49,28.03-13.87,42-21,8.19-4.18,14.45-11.13,22.4-15.6,5.99-3.37,13.48-5.46,19.6-8.4,9.64-4.64,18.99-9.9,28.8-14.2,1.64-.08,1.69-.27,1.35,1.35-3.62,17.07-5.67,34.45-7.84,51.67l-156.91,158.66c-.36,1.14,0,2.11.86,2.89,25.64,24.68,50.41,50.26,76.02,74.98,4.54,4.38,9.54,8.59,14.05,12.95,3.43,3.32,9,11.79,13.53,8.57,49.99-50.77,99.49-101.73,149.42-152.57,1.01-1.02,2.44-1.5,3.46-2.54,7.33-7.44,14.06-16.07,22.06-22.94,2.22-1.91.97-.28,2.5,1-1.1,15.72-2.5,30.04-2,46l-153.95,155.61,101.56,100.34,1.4-.4c7.03-7.31,14.42-14.27,21.51-21.53,56.08-57.38,113.42-115.04,168.78-172.72.72-.76,3.5-1.79,3.7-2.3,1.05-.81,1.97-.84,3,0,.78,5.81.24,20.71,5.63,23.87,3.65,2.14,5.88,1.07,9.37.13,2.42.88-.23,2.68-1,3.5-6.16,6.61-12.73,12.97-19,19.5-54.89,57.16-111.01,113.12-166.52,169.97l-2.28,4.37,101.46,99.48c3.34.36,7.42-6.14,9.69-8.44,18.09-18.29,37.55-37.17,55.67-55.84,7.31-7.53,13.71-15.96,21.99-22.55.06.27,2.17,4.53,2.51,4.99,3.11,4.29,15.94,4.28,21.01,4.03,15.08-.75,30.04-5.13,44.99-6.07,9.34-.59,23.66,7.12,26.98,16.06,2.81,7.55,3,12.11-.62,19.37-6.28,12.57-16.81,19.36-31.13,17.38-5.64-.78-20.52-6.14-24.45-10.05-2.74-2.73-3.5-11.67-10.31-8.2-1.55.79-13.1,12.81-14.98,15.01-4.13,4.82-7.25,10.91-10.98,15.78-.79,1.03-2.49,1.06-2.9,2.32s-.36,4.52-.12,5.89c.6,3.51,3.45,2.89,5.52,4.47,1.25.95,2.14,2.44,3.54,3.46,22.45,16.24,47.33,15.18,73.51,12.65,10.09-.98,20.29-1.8,28.44-8.56,14.94-12.37,26.16-26.19,33.85-44.15,4.59-10.71,4.17-41.72,1.67-53.42-.56-2.6-1.83-7.79-3.09-9.91-.8-1.33-8.68-7.24-10.52-8.48-6.91-4.62-24.42-11.56-32.65-13.35-12.77-2.79-31.32,1.64-44.53,4.03-1.27.23-6.42,2.09-6.74,1.75-.5-.52.93-4.14,1.02-5.47.23-3.31.04-7.15-.02-10.52l42-43c.74-.08,1.87-.94,3.44-1.02,5.27-.28,20.89,1.17,24.11-.92,4.87-3.16,3.64-18.35,3.44-24.06-.15-2.13-.29-3.65.95-5.56.66-1.03,4.43-5.07,5.62-6.37,34.86-37.9,76.06-72.78,109.49-111.51l13.94-12.56c8.25,25.31,13.75,45.61,25.74,69.76,1.89,3.8,2.92,10.11,6.29,12.71,1.18.91,7.34,4.46,8.53,4.55,1.9.13,5.54-1.68,6.89-3.07,9.01-9.24,12.08-23.62,17.08-34.92.54-1.22,1.05-3.99,2.47-4.03-.64,3.67.87,6.98,1.05,10.45,1.81,34.04-.39,70.69-.1,105.1.65,74.38.84,149.61,3.07,223.93.16,5.32.77,15.24-.02,20.01-.38,2.31-2.13,3.62-4.45,3.55-21.65.53-43.46-.87-65.1-.1-12.07.43-24.24,1.81-36.45,2.05.26-.95-.89-1.67-1-2-.1-.3.07-.69,0-1v-1c4.62,0,13.44.76,17.29-.99,2.57-1.17,2.79-11.88-1.79-11.66s-3.05,5.02-3.52,5.63-10.98-.42-10.98-.98v-16c3.02,1.18,7.52,1.02,10.28,2.01,1.14.41,1.9,5.12,5.76,2.53,5.26-3.52-.58-22-6.13-9.58-1.6-1.38-9.28-1.49-9.89-1.98-.39-.32-.38-9.62-.03-9.98.47-.48,11.97.77,13.34,1.17,1.27.37,6.75,6.6,7.68.35,1.37-9.19-3.82-6.8-9.54-7.49-3.45-.42-13.09-2.76-15.48-1.53-.45.23-2.99,2.79-2.99,3.01v40.5l-4.85-1.14c-.33-3.39-6.78-13.71-5.71-15.85.6-1.2,3.05-2.49,4-4.07,2.67-4.44.67-10.88-1.61-15.27-4.4-8.49-19.5-11.31-27.2-5.54-3.86,2.89-1.64,4.77-1.58,8.33.12,7.32-.43,14.76-.07,22.07.1,2,1.2,3.86,1.11,5.99-.16,3.81-5.35,4.97-2.09,9.49-1.5.2-3.72,1.24-3,3-1,0-2,0-3,0l1-4c.46-.36.64-.59,1-1,1.31-1.51,1.75-1.62,0-3-1.06-.84-4.71-1.87-4.88-2.12-.53-.74.09-7.42-1.13-9.36-.44-5.89,1.41-11.14,1.06-17.07-.15-2.59-1.5-5.61-1.1-7.9.18-1.04,2.73-.25,3.63-1.47.58-.79.78-4.33.33-4.98-1.07-1.54-13.71-1.57-14.79,0-.38.55-.26,3.44.02,4.3.43,1.32,2.12,1.22,2.62,1.84,2,2.47,1,10.46,1.26,13.76h-15c.42-3.09-.69-7.5.17-10.33.62-2.06,4.76-2.97,1.9-6.24-2.88-3.3-14.63-2.37-14.83,2.23-.22,5.27,4.83,2.17,5.64,4.97.74,2.54-.16,6.93.1,9.9.53,6.08,2.74,14.26,2.64,20.05-.02,1.43-1.52,2.09-1.62,2.43-.44.51-1.89,1.61-2,2-.64-1.78-3.5-1.26-4.01-2.7-1.68-4.76-.26-10.86-2.01-15.78-.03-6.74.7-23.49-7.68-25.32-10.6-2.32-22.1,1.48-25.03,12.58-2.42,9.16-2.03,21.5-4.45,29.55-.6,1.99-2.58,1.57-2.82,5.68-.06.99.04,2,0,3-3.14.15-6.87.19-10,0v-2c6.58-5.84,5.26-9.95,5.98-17.52.16-1.72.96-3.3,1.04-4.96.2-4.36.42-16.43-2.51-19.53-3.82-4.04-20.11-.88-25.87-1.94-1.03-.19-.4-3.97-6.04-3.09-1.81.28-3.49,13.11,1.9,13.1,1.92,0,2.6-2.65,4.99-3.06,2.77-.47,13.14-.43,16.02-.01.85.12,2.48.86,2.48,1.52v23c0,1.12-1.53,5.64-3.32,5.37-.99-.15-10.05-2.72-10.48-3.06-2.74-2.23,2.7-9.99-5.31-9.28-3.04.27-8.34,1.59-8.69,5.14-.43,4.43,3.11,2.76,4.8,3.81,3.26,2.02,3.06,7.61,11.99,10.53v1c-.88-.15-7.12.81-9,1-.95-1.7-3.83-.99-5.5-1-13.44-.12-27.67-.53-41.03,0-1.95.08-4.02-1.04-3.47,2-23.98.11-48.02-.21-72,0-1.43-1.61-3.61-.98-5.49-1.01-10.44-.17-21.65-.41-32.03,0-1.94.08-4.02-1.04-3.47,2-16.65.14-33.35-.15-50,0-1.43-1.61-3.61-.98-5.49-1.01-18.22-.3-37.91-.72-56.03,0-1.95.08-4.02-1.04-3.47,2-17.98.12-36.02-.15-54,0-1.43-1.61-3.61-.98-5.49-1.01-13.36-.22-27.74-.52-41.03,0-1.95.08-4.02-1.04-3.47,2-18.65.13-37.35-.13-56,0-1.43-1.61-3.61-.98-5.49-1.01-16.27-.27-33.84-.64-50.03,0-1.95.08-4.02-1.04-3.47,2-15.52-.05-32.74,1.01-48,0-.13,0-.86-.91-2.4-1.06s-7.29.37-7.61.06c-.65-.66.12-15.63,0-18.53-.08-1.95,1.04-4.02-2-3.47-.21-21.31.2-42.69,0-64,1.72-3.33,1.15-8.74,1-12.53-.08-1.94,1.04-4.02-2-3.47-.29-30.98.29-62.02,0-93,1.61-1.43.98-3.61,1.01-5.49.09-5.6.21-11.46,0-17.03-.08-1.94,1.04-4.02-2-3.47-.26-28.31.25-56.69,0-85,1.61-1.43.98-3.61,1.01-5.49.09-5.6.21-11.46,0-17.03-.08-1.94,1.04-4.02-2-3.47-.24-27.65.19-55.35,0-83,1.61-1.43.98-3.61,1.01-5.49.08-4.64.18-9.4,0-14.03-.08-1.94,1.04-4.02-2-3.47-.21-29.25-.62-58.77,0-88,.18-8.47,1.36-17.53,1-26.53-.08-1.95,1.04-4.02-2-3.47-.02-33.65.01-67.35,0-101ZM237,697c-.11-.07-.11-1.52-.95-2.5-4.81-5.55-11.12-10.46-16.03-16.02-2.02-1.23-3.74-.32-4.03,2,.23,64.44.31,128.65.97,193.06.42,40.75.99,82.16,2.1,122.9.24,8.93-.96,19.48-.08,28.08.29,2.78,1.16,5.78,4.48,5.52,79.13-.24,158-.36,237.1-1,2.41-.02,4.49-1.08,6.9-1.1,33.95-.26,67.95.44,101.87-.13,6.82-4.01-2.92-8.93-5.76-11.89-12.49-13-25.57-25.76-38.55-38.48-55.58-54.48-111.93-109.17-167.5-164.51-.65-.91-1.83-.67-2.52-.94-3.72-6.68-15.11-15.64-21.02-21.48-8.09-7.98-16.97-18.47-25.45-25.54-1.48-1.23-2.18-2.44-4.52-1.98-.1-.3.11-.72,0-1-2.34-5.98-12.13-12.7-17.03-17.47-13.5-13.16-26.53-26.83-39.95-40.08-.8-1.16-1.99-1.07-3.02-1.44-2.46-4.95-3.8-3.92-7-6ZM899.75,772.25c-7.35.96-20.47,10.71-26.24,15.76-5.4,4.72-7.8,8.81-10.7,15.3-17.55,39.4-26.1,90.99-18.53,133.91,2.1,11.93,5.55,18.76,9.49,29.51,4.88,13.35,7.77,23.46,16.8,35.2,10.65,13.84,36.41,18.18,52.48,14.63,14.77-3.26,24.78-15.3,32.37-27.63,7.22-11.74,8.6-25.02,10.65-38.35,5.06-32.87,4.78-66.91,2.9-100.06-.8-14.15-1.54-25.96-5.22-39.78-6.17-23.18-17.3-29.99-39.76-36.24-6.96-1.94-13.58-2.06-20.52-2.55-1.33-.09-2.46.14-3.74.3Z"/>
  <path class="cls-27" d="M783,604c4.37,29.63,9.01,59.53,15.21,89.29.76,3.64,1.11,6.86,1.76,10.1.16.81,1.91.4,2.06,1.23,1.27,7.19,2.92,12.79,6.26,19.6,2.55,5.19,4.84,9.99,11.76,8.37.89-.21,7-2.52,7.7-2.88,2.17-1.14,4.91-7.07,6.28-8.98,1.27-1.76,7.55-7.59,7.96-9.4,1.47-6.56,2.14-11.03,6.03-16.62,6.74-9.67,15.16-14.94,17.98-26.01.21-.81,4.98-7.9,5.92-9.46,6.99-11.61,17.24-20.47,25.13-31.72,2.16-3.08,5.71-6.29,6.94-8.22.88-1.38,1.6-4.77,2.02-5.3,1.25-1.61,2.59,2.48,3.69,2.25,6.27,15.02,11.15,29.99,16.3,45.75-4.12,3.3-7.83,7.21-11.53,10.97-14.91,15.16-30.06,31.57-44.86,46.68-6.43,6.56-18.66,16.34-23.64,23.02-.63.85-.51,2.69-1.2,3.16-15.13,10.5-27.62,28.93-41.85,41.6-1.87,1.67-4.65,3.45-6.93,4.57-.14-2.86.51-6.86.01-9.35-.09-.43-4.2-2.84-4.22-4.4-4.73.07-2.96-.8-3.81-2.22-1.47-2.45-1.99,1.64-2.13,1.76-1.24,1.04-28.61.56-32.43.28-2.09-.15-1.12-1.91-2.04-2.1-2.47-.51-29.97-.69-31.2.28-.29.23-.02,1.61-.8,1.77-2.14.45-24.21.5-25.2-.28-.29-.23-.02-1.61-.8-1.77-1.25-.26-4.54-.19-5.96-.04-2.4.24-3.25,5.85-7.43,4.07-.87,5.52,1.27,39.89-.25,41.81-.23.29-1.61.02-1.77.8-1.49,7.14,1.53,19.61.05,26.77-.17.82-1.89.41-2.05,1.23-1.47,7.17,1.61,46.87-.23,49.2-.23.29-1.61.02-1.77.8-.43,2.08-.41,17.24.03,19.39-8.27,6.58-14.67,15.01-21.99,22.55-18.12,18.67-37.58,37.56-55.67,55.84-2.27,2.29-6.35,8.8-9.69,8.44l-101.46-99.48,2.28-4.37c55.51-56.85,111.63-112.81,166.52-169.97l24-24c4.35-1.55,10.51-8.03,13.96-11.74,2.08-2.24,3.82-6.13,6.04-8.26,17.88-17.13,35.19-34.48,52.45-52.01,10.83-11,22.12-21.71,32.55-32.99Z"/>
  <path class="cls-15" d="M513,627c.28,8.92-.95,24.51,12.33,21.82,9.52-6.83,18.49-14.3,28.35-20.64,3.72-2.39,8.47-4.14,12.25-6.75,6.24-4.3,10.94-10.52,17.13-14.87,17.71-12.42,37.09-23.1,53.59-37.41,1.76-.69,12.53-9.1,13.33-8.17,1.49,1.75.76,8.04.98,10.52,3.4,37.21,2.3,73.72,7.02,111.48-3.36-.61-1.41,1.45-2,3-.2.51-2.97,1.54-3.7,2.3-55.36,57.68-112.7,115.35-168.78,172.72-7.09,7.25-14.48,14.21-21.51,21.53l-1.4.4-101.56-100.34,153.95-155.61Z"/>
  <path class="cls-20" d="M390,500c-1.94,15.35-4.97,31.94-6.05,47.45-.29,4.14-.41,30.83.52,32.58.52.97,2.2,1.59,3.2,2.35.33.25.25,1.21.51,1.39.81.56,8.67.43,10.11.03,2.45-.68,10.45-5.68,13.79-7.23,1.57-.73,4.37-2.42,4.63-2.52,24.14-8.32,43.61-25.65,63.99-40.03,9.42-6.65,21.36-10.74,31.23-17.57,2.77-1.91,4.32-4.48,7.56-5.44l.51,14.51c-3.19,18.19-3.72,36.98-5.01,55.49-1.53-1.28-.28-2.91-2.5-1-8,6.87-14.74,15.5-22.06,22.94-1.03,1.04-2.46,1.51-3.46,2.54-49.93,50.84-99.43,101.8-149.42,152.57-4.53,3.22-10.1-5.26-13.53-8.57-4.51-4.36-9.51-8.57-14.05-12.95-25.61-24.72-50.38-50.3-76.02-74.98-.86-.78-1.22-1.75-.86-2.89l156.91-158.66Z"/>
  <path class="cls-12" d="M863,473l-83,87c-28.74-4.55-58.08-8.07-86.23-16.27-12.26-3.57-23.69-9.19-35.78-13.22-12.62-4.2-25.56-8.35-37.99-12.51l110-114c45.64,22.01,88.32,45.51,133,69Z"/>
  <path class="cls-17" d="M293.65,360.39c1.61,1.39,3.47,4.27,5.08,5.58,10.7,8.71,26.44,15.26,38.61,23.19,7.09,4.62,13.14,9.88,20.77,14.23,12.49,7.11,27.12,13.02,39.2,20.61.12.08,1.61,1.62,2.01,2.02.66.66,1.16.26.68,1.97-4.43,1.43-8.65,3.67-12.82,5.74-19.14,9.49-40.17,17.92-57.91,30.25-13.96,9.71-30.14,14.03-44.04,23.95-2.09-.05-10.41,5.96-11.23,5.07-1.06-1.14.94-10.12,1.04-12.45,1.33-29.82-2.96-60.78-1.1-90.1.59-9.29,3.2-14.87,5.79-23.21.67-2.17,2.49-12.41,3.27-13.24,1.38-1.47,9.15,5.11,10.64,6.39Z"/>
  <path class="cls-14" d="M514,493.01c.6.53-.4,1.87-.97,2.52-1.53,1.74-7.4,5.68-9.7,7.3-9.23,6.48-19.11,9.74-28.25,15.75-14.33,9.43-29.25,22.59-43.76,31.24-2.97,1.77-30.13,15.43-31.31,14.18-.47-.49-.13-11.54-.02-13.52.84-15.93,3.96-33.06,6-49,2.3-18,5.89-36.1,7.94-54.06.27-2.36-.78-9.93,1.6-10.42l98.48,56.01Z"/>
  <path class="cls-19" d="M190.39,287.65c8.23,8.73,16.24,12.22,25.54,18.91,8.46,6.09,16.15,13.34,24.74,19.26,9.24,6.37,20.06,10.98,28.68,18.13.82.68,1,1.74.64,2.03-4.36,1.96-9.07,3.73-13.24,6.08-6.33,3.56-9.89,5.77-17.13,9.06-29.03,13.18-56.3,27.14-82.1,45.9-1.84.08-8.75,5.8-9.52,4.97-.66-.71,3.25-14.27,3.75-16.74,5.24-25.84,8.43-52.69,14.48-78.52,3.35-14.32,8.97-28.23,11.77-42.73,5.04,3.53,8.22,9.22,12.39,13.65Z"/>
  <path class="cls-4" d="M772,576.01c-1.6,2.25-3.9,4.71-5.98,6.51-8.81,7.63-18.27,15.54-25.15,24.82-5.19,7-9.25,12.86-14.87,19.35-9.39,10.83-19.92,20.37-28.02,32.59-6.03,9.1-10.88,19.46-18.01,27.97-6.69,7.98-5.45-2.17-5.94-6.78-1.65-15.47-2.99-30.49-4-46-1.72-26.21-2.29-52.61-4.1-78.9-.07-1-1.03-2.38-.9-3.03.68-3.46,6.3.65,7.77,1.17,29.31,10.27,60.13,15.15,90.66,20.34,2.87.49,5.44,2.41,8.55,1.95Z"/>
  <path class="cls-9" d="M645,543c1.08.93-1.02,2.28-1.66,2.83-5.03,4.33-13.02,8.17-18.62,12.18-10.22,7.32-20.54,15.89-30.79,23.41-6.69,4.91-14.85,7.86-21.22,12.59-3.21,2.38-6.53,6.89-9.69,9.51-6.83,5.66-13.14,8.27-20.34,12.66-1.76,1.07-12.97,9.65-13.68,8.82-.34-.4.02-8.8,0-10.53-.1-7.49.56-13.56,1.01-20.95,1.4-22.81,4.04-45.36,5.99-68.01.3-3.51-.8-21.71-.01-22.51,1.72-1.73,29.16,12.43,33.31,14.19,18.4,7.79,37.84,13.23,56.45,20.55l19.24,5.26Z"/>
  <path class="cls-19" d="M900,592c.19.17.04,2.53-.2,3.3-1.48,4.71-10.43,15.48-13.83,19.97-7.95,10.48-18.07,20.75-25.96,31.44-5.03,6.82-6.81,14.89-10.99,21.81s-12.52,13.37-16.69,19.78c-4.97,7.64-3.52,18.74-12.33,23.7.12-1.39-.06-2.69-.48-4.02-11.84-37.25-15.17-75.88-21.74-114.26-.75-4.38-2.96-8.53-1.78-13.71l104,12Z"/>
  <path class="cls-14" d="M990.98,598.02c.3.24-.14,5.09,0,6.5.94,9.22.76,18.68,1.04,27.96.21,7.04-1.26,14.9-1.08,20.99.14,4.71,4.55,13.66,2.56,17.54-.54,1.06-2.42,2.14-3.35,3.64-2.89,4.68-7.38,13.88-9.89,19.11-5.12,10.67-6.64,22.75-11.22,33.63-.48,1.14-1.12.61-2.03.61-2.89-6.3-6.24-12.23-8.77-18.74-9.9-25.4-15.67-52.26-25.21-77.79-4.7-12.57-10.99-24.62-15.02-37.47l72.97,4.02Z"/>
  <path class="cls-6" d="M730,404l-110,114c-11.77-3.94-23.21-7.46-35-12l114-117c10.36,4.94,20.68,10.02,31,15Z"/>
  <path class="cls-6" d="M894,489l-75,78c-14.23-1.69-25.73-4.9-39-7l83-87c10.26,5.39,20.9,10.61,31,16Z"/>
  <path class="cls-11" d="M167,521c0,8.15-.09,16.34,0,24.5.02,1.67-.7,4.55,1,5.5-.62,29.23-.21,58.75,0,88,.05,7.59.95,16.27,1,23,.19,27.65-.24,55.35,0,83,.07,8.58.93,18.24,1,26,.25,28.31-.26,56.69,0,85,.08,8.58.93,18.24,1,26,.29,30.98-.29,62.02,0,93,.05,5.26.96,11.37,1,16,.2,21.31-.21,42.69,0,64,.05,4.91-.92,18.32.74,21.75.73,1.51,2.19,2.11,3.26,3.25-.09,0-.48.93-1.43.94-.47,0-4.32-.86-4.49-1.01-.7-.6.06-15.59-.06-18.45-1.52-36.25-.65-72.63-.97-109.03-1.33-149.2-3.87-298.7-5.1-447.9-.23-27.64.31-55.29,0-82.92.15-.89,2.13-1.05,3.05-1.62.01,33.65-.02,67.35,0,101Z"/>
  <path class="cls-11" d="M738,1072c.47.08,1.25,1.25,3.52,1.11,1.57-.1,2.34-1.09,2.48-1.11,1.39-.17,3.58-.13,5,0,.11.01.74.92,2,1,3.13.19,6.86.15,10,0,1.26-.06,1.89-.99,2-1,4.12-.2,8.87-.17,13,0,21.41.9,43.24.12,65,0,1,0,2,0,3,0,15.65-.03,31.35.02,47,0,.11.33,1.26,1.05,1,2-13.49.26-27.04-.25-40.55-.05-222.41,3.28-444.9,4.26-667.45,6.05v-2c15.26,1.01,32.48-.05,48,0,19.6.07,40.16-.87,59-1,18.65-.13,37.35.13,56,0,16.56-.12,34.19-.87,50-1,17.98-.15,36.02.12,54,0,21.56-.14,44.17-.81,65-1,16.65-.15,33.35.14,50,0,13.57-.12,28.2-.89,41-1,23.98-.21,48.02.11,72,0,16.66-.08,33.72.66,50-1,1.88-.19,8.12-1.15,9-1Z"/>
  <path class="cls-6" d="M705,678c8.22-14.33,14.47-21.76,25.98-33.52,14.92-15.26,25.28-34.03,42-48,1.33-.34,7.13-6.6,8.02-5.48.35.44,1.74,9.27,2,11-5.79,2.15-9.51,8.86-13.48,13.02-20.19,21.16-41.51,40.54-61.01,62-1.64-.47-3.56,5.77-3.51.98Z"/>
  <path class="cls-11" d="M783,602c.1.64-.09,1.36,0,2-10.42,11.28-21.72,21.98-32.55,32.99-17.26,17.54-34.57,34.88-52.45,52.01,2.35-3.6,4.86-7.27,7-11-.05,4.79,1.87-1.45,3.51-.98,19.5-21.46,40.82-40.84,61.01-62,3.97-4.16,7.68-10.87,13.48-13.02Z"/>
  <path class="cls-8" d="M172,1055c3.04-.55,1.92,1.53,2,3.47.12,2.9-.66,17.87,0,18.53.31.31,6.08-.2,7.61-.06s2.27,1.05,2.4,1.06v2c-2.66.02-5.35-.08-8,0-1.07-1.14-2.53-1.74-3.26-3.25-1.66-3.43-.69-16.85-.74-21.75Z"/>
  <path class="cls-23" d="M927,664l-13.94,12.56c-33.43,38.73-74.64,73.61-109.49,111.51-1.2,1.3-4.96,5.35-5.62,6.37-1.23,1.91-1.09,3.43-.95,5.56-.05-1.54-.87-5.2-1-8,2.28-1.12,5.06-2.91,6.93-4.57,14.23-12.67,26.72-31.09,41.85-41.6.68-.48.57-2.32,1.2-3.16,4.98-6.68,17.21-16.46,23.64-23.02,14.81-15.11,29.96-31.52,44.86-46.68,3.7-3.76,7.41-7.67,11.53-10.97.11.33.68,1.01,1,2Z"/>
  <path class="cls-22" d="M162.99,271c-1.73.24-.97-2.29-.99-3.49-.03-1.55-.32-9.15,0-9.5.54-.6,2.51.44,2.88,1.64.99,3.2-2.02,7.91-1.89,11.36Z"/>
  <path class="cls-23" d="M678,709l-24,24c6.27-6.53,12.84-12.88,19-19.5.77-.82,3.41-2.62,1-3.5,1.11-.3,3.41-.79,4-1Z"/>
  <path class="cls-11" d="M658,683c.02.16.78,1.37,1,3-1.03-.84-1.95-.81-3,0,.59-1.55-1.36-3.61,2-3Z"/>
  <rect class="cls-11" x="158" y="155" width="1" height="35"/>
  <path class="cls-21" d="M706,143c10.7,5.01,22.48,7.72,33.55,11.95,46.79,17.88,99.41,36.26,144.15,57.85,75.64,36.48,149.69,76.84,228.31,106.69,1.64,2.02,11.69,4.62,11.99,6.03.44,2.03-13.71,20.77-15.85,24.14-32.49,51.18-65.15,103.65-94.34,156.66-1.47,2.67-3.11,5.71-3.82,8.68-3.47.87-24.95,6.15-26,7-10.37-6.44-21.78-10.98-32.35-17.15-26.4-15.43-50.75-29.7-77.95-44.05-36.86-19.45-73.94-38.99-111.39-57.61-42.23-20.99-84.6-41.87-127.33-61.71-2.88-1.34-4.29.31-2.52-5.52,5.49-18.1,15.89-35.95,21.28-54.71,2.71-9.43,3.46-19.58,6.22-28.78,3.64-12.17,9.99-25.38,14.55-37.45,8.32-22.03,16.08-45.55,26.25-66.76.39-.81.07-1.86.24-2.24,1.26-2.73,3-2.14,5-3ZM740,177.01c.64.84,3.76-.11,4.05-2.51,1.07-8.84-13.94-12.88-19.5-6.44-4.66,5.4-4.8,8.96.52,13.37,3.29,2.73,10.52,6.05,12.99,9,4.13,4.93-5.26,11.63-11.61,4.61-2.05-2.27-1.55-3.41-2.44-5.34-.98-2.11-4.16-2.17-4.08,1.81.16,8.05,11.05,13.63,18.03,9.95.66-.35,5.24-4.86,5.54-5.45,4.63-9.06-16.18-15.8-17.42-19.63-1.06-3.29,2.64-7.6,6.34-7.37.93.06,5.87,1.7,6.37,2.2,1.38,1.35.96,5.47,1.21,5.8ZM768,200c.39-.39-.16-3.09-.46-4.04-2.67-8.52-13.44-12.26-18.99-3.92-5.26,7.89,3.74,18.95,11.21,21.7,1.96.72,11.47,2.81,10.24-1.24-.53-1.74-8.05-2.33-10.37-3.64-2.58-1.46-7.95-7.68-8.48-10.59-.98-5.32,6.35-8.75,10.32-4.25,1.13,1.28,2.36,5.64,2.66,5.84.44.31,3.73.26,3.87.13ZM783,187c-.22-.23-3.28-.11-4.05.44-2.78,1.98-1.58,10.9-1.92,14.08-.3,2.73-2.46,11.13-1.96,12.87.46,1.61,3.86,2.24,4.87,1.54.24-.17,1.75-4.97,1.79-5.59.21-3.03-1.79-4.84,2.3-7.82,4.95-3.61,11.24-1.17,14.42,3.52,4.11,6.06-2.27,11.37-2.49,17.42-.17,4.74,2.27,2.28,3.88-.12,3.02-4.49,5.49-12.12,3.71-17.4s-10.12-10.39-15.82-9.76c-1.77.19-6.49,3.09-6.73,2.82-.76-.88,3.29-10.68,1.99-12ZM826.07,218.07c-.24.17-1.77,5.03-1.81,5.58-.1,1.8,1.09,2.71.31,5.38-2.02,6.94-5.98,5.5-10.12,1.02-2.87-3.11-2.84-6.4-2.37-10.47.26-2.26,3.04-9.31,2.9-10.02-.48-2.33-3.71-2.33-5.05.88-2.13,5.13-3.41,12.49-1.69,17.82,1.36,4.21,7.77,9.89,12.26,9.83,1.95-.03,4.7-1.37,5.87-1.03,1.23.36,3.12,5.52,6.12,4.94,3.68-.71-1.24-5.76-1.89-7.1-2.88-5.88-.33-5.07.37-9.44.31-1.95.6-6.77-1.57-7.38-.75-.21-2.89-.33-3.34-.03ZM857,246c-.46.49-4.63-1.32-5.53-1.97-4-2.89-3.84-8.11-3.48-12.55.14-1.76,4.64-17.06-.48-15.48-1.34.41-1.97,4.33-2.25,5.75-.65,3.34-2.33,12.81-2.22,15.65.22,5.74,7.32,13.86,13.38,12.64,1.05-.21.14-2.08,1.08-2.05,2.43,2.12,4.48,5.06,7.16,6.84,2.22,1.48,14.8,6.9,13.34,1.66-.53-1.9-12.77-4.47-15.46-9.55-.43-.82-1.76-5.74-1.54-5.96,1.43-1.35,11.4,4.46,16.38,2.87,4.05-1.3.52-11.58-1.5-14.25-6.45-8.52-16.27.86-18.42,8.33-.64,2.22-.19,7.75-.46,8.04ZM792.76,238.25c.39.34,5.86,9.57,7.24,4.22.89-3.47-6.19-9.93-9.53-10.43-13.14-1.97-15.98,5.39-8.44,15.23,2.38,3.1,10.33,8.41,11.42,11.76.4,1.24,1.14,5.35.48,5.9-.55.46-6.16,1.19-7.41,1.12-2.76-.15-10.83-2.57-12.08-5.04-1.05-2.08,2.29-7.79-2.94-7.01-.67.1-1.36,2.88-1.44,3.56-1.36,12.34,14.21,13.73,23.4,12.4,4.15-.6,5.63-3.55,5.63-7.46,0-9.42-9.41-12.89-14.09-18.99-1.7-2.21-4.09-5.49-.98-7.05,1.43-.72,7.53.75,8.74,1.8ZM808,254c.03.59-.13,1.88,0,2,.38.36,4.62-.36,5,0,.18.18-.8,3.9-1,5-.64,3.54-4.03,12.84-3.99,14.54.03,1.11,1.69,3.2,2.5,3.46,2.87.93,2.77-6.2,3.5-7,.35-.38,7.87,3.52,9.45,4.04,29.31,9.68,23.82-17.12,5.47-25.47-3.73-1.7-14.41-4.28-17.98-3.13s-3.12,3.4-2.95,6.55ZM929,257c-.22-.3-.2-3.17-1.53-4.99-2.99-4.09-9.12-4.98-13.42-2.46-.55.32-5.05,3.76-5.1,4.09-.22,1.42.2,3.13-.03,4.78-.3,2.21-1.9,11.48-.92,12.58.13.15,3.8.07,3.92-.08,1.45-1.82,1.01-13.35,3.56-16.95,1.16-1.64,6.61-1.47,8.04,0,4.61,4.73-.12,14.27.44,20.57.33,3.72,3.18,5.16,4.86,1.76,1.89-3.83,1.13-18.55,8.57-16.22,1.12.35,1.29,1.42,1.82,2.2,4.29,6.35-.6,21.27.8,22.7.33.34,2.85.15,3.53-.97,1.09-1.8-.58-4.91,1.46-5.03.02,7.08,8,17.8,15.44,17.01,2.12-.22,5.36-3.25,5.56-3.01.19.23.13,5.22,1.12,5.89.44.3,3.73.23,3.83.07.45-.66-.59-2.75.55-2.96,3.02,4.47,6.55,8.05,11.19,10.81,1.86,1.11,10.93,5.57,12.31,4.18.14-.14.17-3.49-.11-3.89-.19-.27-4.9-1.59-6.25-2.25-5.91-2.92-14.36-8.51-15.47-15.6s6.93-10.25,12.36-5.29c1.47,1.34,4.61,7.52,6.96,7.03,1.14-.24,1.69-1.99,1.35-3.32-.74-2.87-7.31-8.74-10.11-9.89-6.46-2.67-10.69,2.44-12.1,2.15-3.7-.77-3.72-9.46-7.18-12.88-5.85-5.8-13.8-2.4-18.45,2.95.48-5.39-4.72-14.97-10.51-14.98-1.43,0-5.68,3.11-6.49,1.98ZM712,266c2.5-2.58-4.9-8.35-7.09-9.4-3.91-1.88-13.75-3.88-13.99,1.91-.31,7.52,12.86,13.33,17.09,19s1.66,7.15-4.54,6.54c-2.76-.27-9.92-3.35-11.36-5.64-1.07-1.69-.93-5.88-2.61-6.4-2.82-.87-2.7,4.52-2.29,6.3,1.39,6.07,14.72,11.26,20.23,10.71,1.76-.18,6.34-3.3,6.56-3.02.62.81,2,5.49,3.17,7.35,2.81,4.46,8.39,9.49,13.15,11.85,1.08.54,7.61,2.88,8.14,2.78,1.34-.25,2.13-2.64,1.11-4.03-.58-.79-6.47-2.39-8.49-3.51-4.62-2.56-11.75-9.92-12.87-15.13-3.09-14.45,9.27-15.59,16.25-6.25.88,1.18,1.24,3.07,2.06,3.94,3.76,4,4.51-1.43,2.36-5.36-3.85-7.02-16.22-12.02-22.84-6.1-1.6,1.43-2.11,5.66-2.53,5.47l-18.5-17.5c5.63-2.34,9.1,2.19,12.98,5.02.91.66,2.99,2.54,4.01,1.48ZM877,304c.26.26,3.21.08,4.03-.47,3.56-2.39,3.43-13.97,2.91-17.97-1.55-11.91-16.47-27.6-28.45-18.57-3.48,2.62-12.82,16.81-14.03,20.96-.58,1.99-1.29,6.28,1.14,6.94,5.45,1.48,2.59-2.46,3.6-6.2.13-.49,4.79-8.7,5.3-8.69.14,0,1.25,1.32,2.25,1.74,7.03,2.92,15.39,7.47,22.22,9.79,1.3.44,3.87.35,4.03.47,1.3.96-4.46,10.54-3,11.99ZM750.95,269.03c-.1-.11-2.85-.15-2.94-.04-.38.44-.06,9.74-.05,11.55.03,4.87.64,9.86-.03,14.87-.54,4.06-4.69,12.23-2.47,15.64.69,1.07,3.77,1.38,4.49.88,1.99-1.39,1.85-11.59,2.29-14.21,1.98-11.92,12.97-5.94,18.3.26,8.25,9.6,3.54,13.17.32,22.37-.39,1.1-1.19,2.16.67,2.65,1.69.44,3.08-.69,3.96-2.03l4.52-9.97c1.01,12.55,11.8,24.9,24.6,25.91,15.44,1.23,7.63-10.87,6.46-18.47-.3-1.96.24-4.06-.06-5.94-.23-1.43-3.36-6.2-4.47-7.53-5.01-6.01-15.59-9.83-22.05-4.01-2.53,2.28-2.8,6.18-5.46,8.03,2.31-10.32-13.14-23.61-22.4-22.98-.92.06-3.17,1.43-3.6.98-.62-.66.57-15.02-2.06-17.96ZM926.73,305.74c2.72-2.98-1.38-11.41-3.74-14.23-5.24-6.27-17.28-9.53-25.04-7.06-3.24,1.03-4.14,4.84-1.44,5.55,1.91.5,3.19-1.6,4.99-2,4.86-1.07,1.26,2.28.75,3.75-.66,1.9-2.89,11.71-3.31,12.19-1.11,1.26-6.54-2.95-4.75,4.37.34,1.39,1.79,2.58,1.63,4.03-.35,3.21-5.45,6.57-4.73,9,.18.6,2.2,2.65,2.4,2.65,2.01.03,4.83-7.09,5.44-7.56,2.27-1.77,5.35,1.86,7.36,2.77,4.84,2.2,16.07,7.13,19.19.8,2.96-6.01-4.02-11.59-3.5-11.99.71-.53,3.67-1.11,4.73-2.27ZM1001,285v30.5c0,2.07,3.57,5.32,5.54,1.49.53-1.02-.76-8.95-.3-12.24.31-2.19,2.22-10.34,5.15-9.69,2.53.56,9.77,10.69,10.4,13.65,1.5,6.94-1.6,8.76-2.57,14.03-.64,3.45-.03,6.74,3.27,3.27,3.83-4.02-.27-12.85,10.92-7.09,1.08.56,1.53,8.25,2.03,10.15.87,3.3,6.05,13.75,10.04,12.95,1.04-.21,1.84-2.18,1.44-3.43-.36-1.15-2.48-1.59-3.39-2.61-1.55-1.73-5.74-12.71-4.53-13.96.53-.55,8.27,3.78,10.56,3.97,3.78.32,3.9-2.79,1.8-4.06-1.97-1.19-10.98-3.52-11.93-4.85-1.66-2.35,1.22-13.4-1.95-14.06-3.35-.7-2.3,5.65-2.55,7.45-.89,6.5-3.91,1.83-8.94,2.55,1.97-7.3-8.82-22.04-15.66-22.82-2.05-.23-5,3.21-5.33,2.82-.91-1.08,2.22-9.4-4.01-8ZM689,307c.97-1.06,22.53,11.92,25.64,12.88,4.11-1.22,2.64-3.4.06-5.09-4.54-2.97-14.63-8.15-19.71-10.29-8.41-3.52-9.35-3.73-10.76,6.26-.92,6.48,6,4.34,10.07,5.43,6.99,1.87,13.69,16.89,6.25,21.85-6.77,4.51-13.14-.44-17.59-5.56-1.18-1.36-.61-3.52-3.46-2.48-3.12,1.14-.21,4.57.97,6.02,15.2,18.71,36.78,1.39,23.97-16.97-1.87-2.68-6.49-6.4-9.63-7.37-1.76-.54-5.59-.52-5.82-.7-.16-.12-.13-3.84,0-3.99ZM954.53,307.03c-.64.19-5.54,10.46-6.05,11.95s-2.22,7.37.03,8.02c4.08,1.17,3.19-3.9,3.96-6.03s9.73-16.19,2.06-13.94ZM845.8,349.78c1.23-1.19,5.03-11.1,5.22-13.26.97-11.09-7.07-22.6-17.97-25.08-4.81-1.1-5.67,1.13-8.7,1.3-1.5.08-2.9-1.33-4.39-.29-1.74,1.21-.91,13.14-.91,16.1,0,1.56-.74,3.01-.74,4.13,0,1.67.7,8.99,3.69,6.83,1.63-1.18,1.66-10.31,2.08-12.92.5-3.06,1.24-10.13,4.4-10.61,9.29-1.4,18.76,9.64,18.47,18.43-.17,5.14-2.61,7.21-4.18,10.87-1.74,4.06.11,7.32,3.03,4.51ZM740,337c-.2-.21-.1-3.72-.78-5.72-3.08-8.97-15.46-7.56-21.26-1.82-9.77,9.66-4.99,24.74,6.35,30.73,6.92,3.65,12.24,4.92,17.14-2.24,2.99-4.37,4.13-12.38,4.29-17.65.2-6.26-5.45-3-5.74-3.3ZM948,335c-.42-.42-5.29-.95-3.99,2.49,1.45,3.85,5.63-.85,3.99-2.49ZM1001,349c.26-.26.08-3.22-.46-4.03-1.14-1.7-15.57-7.65-18.1-7.93-4.76-.51-5.19,2.86-2.74,3.98,3.86,1.77,10.12,2.71,14.03,4.76,1.49.78,5.46,5.03,7.28,3.21ZM888,344c1.86-1.75,10.1,2.93,11.93,4.56,1.04.93,1.53,3.02,2.64,3.37,3.19,1.01,3.86-1.65,2.27-4.27-3.77-6.2-22.6-14.12-21.85-3.22.61,8.88,17.59,18.31,22.05,25.01,2.64,3.97.54,3.96-3.1,3.1-4.91-1.17-10.78-4.1-13.95-8.05-.92-1.15-3.31-6.53-4.49-6.5-.16,0-2.15,1.91-2.2,2.46-.1,1.04,2.37,6.41,3.23,7.5,3.57,4.55,19.01,11.25,24.48,8.54,7.78-3.86-6.93-15.95-9.98-19.04-1.64-1.65-4.87-3.73-6.43-5.53-.9-1.04-5.53-7.06-4.6-7.94ZM918.01,367c.83-.97,19.57,12.77,23.52,5.01,2.45-4.81-5.65-20-12.07-20.97-11.9-1.8-16.51,9.3-15.49,19.48,1.03,10.16,11.53,21.02,20.97,24.03,4.89,1.56,6.23-2.76,5.05-3.54-.15-.1-2-.11-2.99-.48-6.53-2.48-14.37-8.35-17.06-14.97-.5-1.24-2.35-8.08-1.95-8.55ZM800.69,402.7c1.37-1.38,4.01-6.67,4.81-8.69,2.41-6.11,2.72-12.61,5.29-18.71,1.35-3.2,4.56-3.82-.45-7.14-4.09-2.71-12.51-6.99-17.08-8.92-1.73-.73-10.41-4.09-11.26-3.24-.14.14-.18,3.42.13,3.87.53.77,8.17,2.85,9.88,3.62,4.11,1.85,8.48,4.36,12.3,6.74,1.37.85,3.24.21,2.69,2.21-2.92,6.58-3.35,14.59-5.95,21.11-5.51,13.77-17.39,5.17-21.09-5.01-.63-1.75-1.71-8.19-1.97-8.54-.15-.2-2.18-.1-3.03.47-3.38,2.27,3.14,15.9,5.6,18.47,4.56,4.76,14.68,9.23,20.13,3.76ZM1004,377c-2.26-.73.86-6.46-3.42-4.92-2.59.93-3.02,5.76-4.58,7.92-.24.08-2.74,2.33-4,3-12.08-7.66-23.98-.87-25,13-.7.19-10.83,7.11-12,8,.68-.7-.95-6.67-1.05-8.45-.18-3.39-.16-7.67.02-11.07.12-2.21,2.27-5.53.05-7.01-.86-.57-2.87-.68-3.02-.48-1.41,2.01-.39,9.81-1.97,12.6,1.45,4.11.2,9.81,2.48,13.39.76,1.2,3.12,1.39,3.48,1.02-.18.14-2.99,3.27-2.99,3.5,0,.34,2.32,2.63,3.33,2.41.63-.14,8.99-5.86,10.66-6.91,4.38,10.84,17.15,14.25,24.51,4.01l-.37,10.35c.44,1.46,1.99,2.02,3.36,1.63,1.75-.5,1.06-2.01,1.02-3.02-.37-10.85,3.71-21.41,5.48-31.98,6.98-3.39,15.75-6.06,22.04-9.46,3.62-1.96,8.06-6.04,1.64-6.37-6.37,3.36-13.14,5.85-19.69,8.82ZM953.51,369c-2.55.55-1.87,6.1,1.99,4.99,3.14-.9.12-5.45-1.99-4.99ZM847.74,417.72c.54-.51,2.46-3.87,2.78-4.71,3.21-8.6,2.84-20.46-1.33-28.7-4.62-9.12-16.87-12.83-25.52-7.15-3.83,2.51-6.97,8.97-8.85,13.15-1.16,2.58-6.4,16.05-4.81,17.69.36.38,2.73.18,3.48-1.01,2.02-3.17,5.12-18.06,8.15-18.92,2.14-.6,11.54,4.34,14.05,5.74,2.12,1.18,11.05,6.67,11.84,8.16,2.78,5.24-4.86,13.86-4.53,15.51.4,2.03,3.51,1.41,4.74.24ZM892.83,418.82c-1.04.74-5.35.15-6.88-.28-3.34-.95-13.47-8.73-15.43-11.6-2.71-3.98,1.52-7.29.37-11.31-.55-1.92-3.44-2.36-4.45-.63.65,9.36-7.36,20.86-7.37,29.54,0,2.33,2.31,5.69,4.96,5.04,4.81-1.17,4.1-12.93,6.45-16.58,3.55,2.97,7.9,7.04,12.12,8.88,2.46,1.08,9,1.84,9.39,2.12.99.7-5.12,18.62-3,21,.13.15,3.86.15,3.99,0,.21-.23-.02-4.67.25-6.26.95-5.72,3.28-14.35,5.01-19.99.87-2.82,7.09-12.44,1.15-13.71-4.53-.97-3.9,11.89-6.57,13.78ZM1036,397c-1.19-1.22-4.1,1.36-5,2.49-1.98,2.48-2.96,7.17-4,8.51-.15.19-3.69-1.74-4.34-2.15-1.23-.79-4.68-5-5.65-1.34-1.03,3.92,6.09,5.57,6.86,8.16,1.34,4.5-4.1,8.59-.64,15.61,3.09,6.26,15.93,5.92,14.77,2.23-.75-2.39-8.93-1.39-10.51-4.49-1-1.96-.02-9.47,1.46-10.59,2.06-1.56,12.81,4.62,15.06,2.57.14-.13.08-3.8-.07-3.92-1.35-1.09-12.54-1.98-12.75-4.54s7.29-9.99,4.81-12.53ZM922,437c.72-.67,12.82,5.97,16.78-1.72,4.37-8.47-2.25-18.31-10.55-21.02-3.58-1.17-14.73-2.87-16.11,1.36-1.61,4.93,1.89,2.78,2.88,3.38,1.36.82-8.34,27.09-9.07,30.49-.03,1.19,1.19,2.8,2.55,2.5,3.15-.7,4.76-10.61,6.03-13.99.37-.97.12-2.29,1.48-2,3.42,7.95,9.87,15.27,13.55,22.95.99,2.08,1.52,6.52,3.06,6.94,4.71,1.31,3.87-2.03,2.88-5.88-1.24-2.35-14.45-22.12-13.47-23.02ZM978,447c.5-.5.04-3.44-1-4.49-.97-.98-7.84-5.2-9.27-5.73-3.86-1.41-7.5-.13-11.29-1.77-.56-.09-1.01.11-1.45.43-.71.51-8.44,12.85-9.4,14.65-5.32,10-5.61,17.62,4.72,24.11,1.99,1.25,11.18,5.27,12.69,3.8,3.16-3.06-9.49-6.91-11.34-8.15-1.08-.72-3.66-2.86-4.16-3.84-.62-1.24-.81-7.67-.5-8,.8-.85,13.22,5.97,15.52,6.01,1.34.03,2.85-1.29,2.48-2.51-.67-2.19-11.86-5.63-14.72-7.31-.82-.48-1.7.38-1.23-1.63,2.01-1.74,6.75-12.04,8.56-12.4.66-.13,1.73.53,2.7.48,1.3-.07,2.31-.83,3.97-.51,3.05.6,12.13,8.46,13.72,6.86ZM1005.01,493c-3.96-7.36-5.7-17.89-3.56-26.05,1.39-5.3,4.69-7.41.58-13.47-1.57-2.31-8.7-6.81-11.3-6.34-3.92.72-8.26,5.54-10.13,8.95-1.67,3.05-8.66,24.83-7.59,25.9.14.14,3.41.18,3.87-.13,2.78-1.94,4.71-28.11,13.85-29.72,1.54-.27,6.03,2.01,7.02,3.11,3.17,3.54-1.38,12.45-1.75,17.23-.66,8.68,1.24,21.42,10.73,24.3,4.5,1.37,2.78-1.04,4.07-4.5,1.17-3.16,4.28-5.92,6.03-8.97,1.65-2.88,8.42-15.88,6.18-18.32-.13-.15-3.84-.13-3.96.03-.14.19-.31,3.4-.74,4.77-.9,2.91-2.53,5.48-3.78,8.23l-9.52,14.97Z"/>
  <path class="cls-22" d="M952,548c2.1.18,4.56-.94,4,1.49-.21.92-.99.21-1.64.87-1.11,1.14.34,1.2-2.37,1.64-.17-.9.25-3.76,0-4Z"/>
  <path class="cls-10" d="M1032,554c-.6.67-1.27,1.49-2,2-.23.16-.95-.24-1.34.02-.78.51-.58,1.55-.85,1.74-.78.58-10.26.35-12.33.24-1.64-.08-2.8-.88-1.48-2,.51-.43,5.76.36,7.38.02.82-.17.41-1.88,1.23-2.05,2.2-.45,6.76,0,9.39.03Z"/>
  <path class="cls-11" d="M1032,554c1.48.02,2.98-.03,4.47,0,1.21.03,3.76-.75,3.53.99l-10,1.01c.73-.51,1.4-1.33,2-2Z"/>
  <path class="cls-3" d="M899.75,772.25c1.29-.17,2.41-.4,3.74-.3,6.93.48,13.56.61,20.52,2.55,22.45,6.26,33.59,13.06,39.76,36.24,3.68,13.82,4.42,25.64,5.22,39.78,1.88,33.15,2.15,67.2-2.9,100.06-2.05,13.32-3.43,26.61-10.65,38.35-7.59,12.33-17.6,24.37-32.37,27.63-16.08,3.55-41.83-.79-52.48-14.63-9.03-11.74-11.92-21.85-16.8-35.2-3.94-10.76-7.38-17.58-9.49-29.51-7.57-42.92.98-94.51,18.53-133.91,2.89-6.49,5.3-10.58,10.7-15.3,5.77-5.05,18.88-14.8,26.24-15.76ZM907.26,952.74c1.1.98,3.77,1.5,5.23,1.32,2.79-.33,3.63-4.5,4.24-6.83,6.01-22.94,5.65-50.94,6.25-74.75.05-1.96,1.15-3.73,1.08-5.95-.08-2.68-2.54-12.97-3.83-15.26-1.81-3.2-5.68-5.05-9.29-3.83-5.65,1.91-5.89,9.45-9.5,13.5-5.49,27.64-5.14,56.96,2.01,84.11.46,1.75,2.63,6.63,3.81,7.68Z"/>
  <path class="cls-18" d="M674,920c-.43-2.14-.46-17.3-.03-19.39.16-.79,1.54-.52,1.77-.8,1.84-2.33-1.25-42.03.23-49.2.17-.82,1.89-.41,2.05-1.23,1.47-7.17-1.54-19.63-.05-26.77.16-.79,1.54-.52,1.77-.8,1.52-1.92-.62-36.29.25-41.81,4.19,1.79,5.04-3.82,7.43-4.07,1.42-.14,4.7-.22,5.96.04.79.16.52,1.54.8,1.77.99.78,23.06.73,25.2.28.79-.16.52-1.54.8-1.77,1.23-.97,28.72-.8,31.2-.28.92.19-.05,1.94,2.04,2.1,3.81.28,31.18.76,32.43-.28.14-.12.66-4.22,2.13-1.76.85,1.42-.93,2.29,3.81,2.22.03,1.55,4.14,3.97,4.22,4.4.49,2.49-.15,6.5-.01,9.35s.95,6.46,1,8c.2,5.71,1.42,20.9-3.44,24.06-3.22,2.09-18.84.64-24.11.92-1.57.08-2.7.94-3.44,1.02-5.89.66-5.07-1.99-5.51-2.04-2.22-.27-3.1,1.68-4.99,2.03-6,1.12-5.54-1.9-6.11-2.01-4.56-.95-12.12.95-16.78.07-1.04-.2-.44-1.75-.62-2.03-1.4-2.22-2.08,1.93-2.59,2.03-1.29.24-5.08-.36-5.4-.04-.62.63.59,14.67.03,17.39-.17.82-1.89.41-2.05,1.23-.37,1.81-.32,18.44.28,19.2,2.48,3.14,1.65,2.33,1.74,7.19.07,3.37.25,7.21.02,10.52-.09,1.33-1.53,4.95-1.02,5.47.33.34,5.48-1.52,6.74-1.75,13.21-2.39,31.76-6.81,44.53-4.03,8.23,1.8,25.74,8.73,32.65,13.35,1.84,1.23,9.72,7.15,10.52,8.48,1.27,2.11,2.54,7.31,3.09,9.91,2.5,11.7,2.93,42.7-1.67,53.42-7.7,17.96-18.92,31.77-33.85,44.15-8.16,6.76-18.35,7.58-28.44,8.56-26.17,2.53-51.05,3.58-73.51-12.65-1.41-1.02-2.3-2.5-3.54-3.46-2.07-1.58-4.91-.96-5.52-4.47-.24-1.37-.28-4.66.12-5.89s2.11-1.29,2.9-2.32c3.73-4.86,6.85-10.96,10.98-15.78,1.89-2.21,13.44-14.22,14.98-15.01,6.81-3.47,7.57,5.47,10.31,8.2,3.92,3.92,18.81,9.27,24.45,10.05,14.31,1.98,24.85-4.81,31.13-17.38,3.62-7.25,3.44-11.82.62-19.37-3.33-8.93-17.64-16.64-26.98-16.06-14.95.94-29.91,5.32-44.99,6.07-5.07.25-17.9.27-21.01-4.03-.34-.46-2.45-4.72-2.51-4.99Z"/>
  <path class="cls-23" d="M237,697c3.2,2.08,4.54,1.05,7,6,1.03.37,2.22.28,3.02,1.44,13.41,13.25,26.44,26.93,39.95,40.08,4.9,4.78,14.69,11.49,17.03,17.47l-5-2c-.26-.42-.84-.71-1-1-.66-1.17.02-3.34-3-3-3.43-5.31-9.61-9.52-14-14-3.68-3.76-7.19-7.36-11-11-.34-.32-.65-.67-1-1-3.05-2.88-2.65-3.74-7-6-.3-.57-.04-1.5-.93-2.55-1.2-1.43-2.22-1.01-3.07-1.45-3.61-6.95-10.59-10.12-14-17-1.25-.45-2.72-.62-4-1-1-1.51-1.29-2.09-3-3-.12-.56.18-1.82,0-2s-1.44.12-2,0c-.97-1.8-7.29-8.32-9-9-.2-2.32-3.65-2.65-4-3-.68-.69.02-4.05-4-3,.1,12.82-.14,25.67,0,38.5.02,1.67-.7,4.55,1,5.5-.04,2,.03,4,0,6-.41,26.88-.53,54.63,0,81.51.04,1.88-.61,4.06,1.01,5.49-.09,11.32.09,22.68,0,34-.14,16.78-.33,33.72,0,50.51.04,1.88-.61,4.06,1.01,5.49-.12,9.98.09,20.02,0,30-.18,20.11-.4,40.4,0,60.51.04,1.88-.61,4.06,1.01,5.49-.17,5.98-.6,14.25,0,20,.2,1.91.31,2.7,2.49,3.01,7.79,1.12,17.93-.86,26.02,0l5.49-1.01c4.98.12,10.02-.07,15,0,50.8.71,101.82-.78,152.45-1.05,48.18-.26,96.38.29,144.55.04.49-3.14-.66-4.71-3.05-6.46-.67-.49-1.76-.36-1.95-.53-.34-.3-.65-.68-1-1-1.79-1.63-4.09-4.13-6-6-3.43-3.36-6.29-6.81-10-10-1.92-1.65-1.12-1.53-4-3-2.11-5.32-10.09-12.27-15-15-1.36-2.45-2.24-5.6-6-6-.27-.47-.53-.72-1-1,.03-2-1.35-2.77-2.49-4.01-2.83-3.08-6.79-7.63-10.51-8.99-.14-.38.32-1.21-.18-1.79-.56-.64-3.6-1.78-4.47-3.02l-1.35-.19c-1.97-4.74-9.12-10.05-13-14-1.84-1.88-1.84-1.24-3-2-.16-.11.16-.84,0-1-3.89-3.94-7.72-9.9-13-12-.13-.26.12-.7,0-1-1.01-2.52-2.1-2.26-4-3-1.48-3.63-.86-1.67-3-3-.06-.04-.96-.94-1-1-.15-.26.33-1.3-.19-1.82s-1.6-.04-1.81-.18c-.34-.24-.79-1.2-2-2-.54-3.02-3.18-5.39-6-6-.15-.41.32-1.43-.12-1.87-.46-.46-1.59.04-1.88-.13-.06-.04-.96-.94-1-1-1.94-3.04-2.98-3.47-6-6-1.76-1.47-.7-1.7-4-3,.26-2.49-1.84-2.86-3-4-2.69-2.64-3.62-4.45-7-6,.12-2-1.37-2.78-2.5-4.01-2.81-3.03-5.77-6.53-9.5-7.99-.28-.72.15-1.73-.97-2.54-.72-.52-1.54-.27-2.03-.46-1.22-3.12-3.45-6.23-7-7-1.3-3.57-.92-1.16-2-2-.17-.13-2.84-2.8-3-3-.22-.26.09-1.73-.96-2.54-.79-.61-1.9-.35-2.04-.46-.6-.51-4.85-4.68-5-5-.76-1.65,1.45-1.72-2-2-.33-.03-.68.05-1,0,.26-2.49-1.84-2.87-3-4-1.04-1.01-1.99-1.95-3-3-3.84-4-7.76-9.86-13-12-.14-.25.13-.72,0-1-2.64-5.78-14.77-13.41-19-21-1.17-.47-2.75-.59-4-1-1.16-1.61-2.39-2.22-3-3-.16-.2.32-1.4-.14-1.86-.48-.49-1.66.02-1.86-.14-2.35-1.87-11.24-10.11-13-12-.28-.3.43-2.09-2-3-.3-.11-.73.12-1,0,.12-2-1.37-2.78-2.5-4.01-1.97-2.13-7.32-8-9.5-8.99-.28-.13-.75.14-1,0,.12-2-1.37-2.78-2.5-4.01-3.25-3.51-5.42-5.73-9.5-7.99-.34-.83-.67-2.03-1-3,2.34-.46,3.04.75,4.52,1.98,8.49,7.08,17.36,17.56,25.45,25.54,5.92,5.84,17.3,14.8,21.02,21.48.69.28,1.86.04,2.52.94,55.57,55.34,111.91,110.03,167.5,164.51,12.98,12.72,26.06,25.49,38.55,38.48,2.84,2.96,12.58,7.88,5.76,11.89-33.92.57-67.92-.14-101.87.13-2.41.02-4.49,1.08-6.9,1.1-79.1.64-157.97.76-237.1,1-3.32.26-4.2-2.74-4.48-5.52-.88-8.6.32-19.15.08-28.08-1.1-40.74-1.68-82.15-2.1-122.9-.66-64.42-.74-128.62-.97-193.06.3-2.32,2.01-3.23,4.03-2,4.91,5.56,11.22,10.47,16.03,16.02.85.98.84,2.43.95,2.5Z"/>
  <path class="cls-5" d="M847,1069c-3.26-4.52,1.93-5.68,2.09-9.49.09-2.13-1.01-3.98-1.11-5.99-.36-7.31.19-14.74.07-22.07-.06-3.56-2.29-5.43,1.58-8.33,7.7-5.77,22.8-2.95,27.2,5.54,2.28,4.39,4.28,10.83,1.61,15.27-.95,1.58-3.4,2.87-4,4.07-1.07,2.14,5.38,12.46,5.71,15.85l4.85,1.14v-40.5c0-.21,2.55-2.78,2.99-3.01,2.4-1.23,12.04,1.12,15.48,1.53,5.71.69,10.9-1.7,9.54,7.49-.93,6.25-6.41.02-7.68-.35-1.37-.4-12.87-1.65-13.34-1.17-.35.36-.36,9.66.03,9.98.61.49,8.28.6,9.89,1.98,5.56-12.42,11.39,6.06,6.13,9.58-3.86,2.58-4.62-2.13-5.76-2.53-2.77-.99-7.26-.83-10.28-2.01v16c0,.56,10.49,1.62,10.98.98s-.99-5.42,3.52-5.63,4.36,10.49,1.79,11.66c-3.85,1.76-12.67.99-17.29.99h-4c-.39-.35-.92-1.98-1.5-1.99-.41,0-1.62,2.05-2.49,2.5-1.97.99-9.23.84-10.78-.72-2.55-2.58.53-4.41.35-5.82-.13-1.01-5.11-12.44-5.69-12.84-.67-.46-3.63.04-5.2-.3s-6.99-5.42-6.72-1.29c.11,1.69.89,3.23,1.06,4.96.46,4.89-.97,4.42,2,9,4.36,6.71-7.8,5.09-11.02,5.53ZM871.87,1040.88c1-1.41-.43-7.14-1.43-8.82-2.14-3.57-12.36-7.08-14.97-3.09-.62.94-.91,11.63-.45,12.01.16.13,2.85.1,4.02.46,1.75.54,4.23,2.43,5.27,2.38.65-.03,7.33-2.61,7.56-2.94Z"/>
  <path class="cls-5" d="M761,1070c.24-4.11,2.22-3.69,2.82-5.68,2.42-8.04,2.03-20.39,4.45-29.55,2.93-11.1,14.44-14.89,25.03-12.58,8.37,1.83,7.65,18.58,7.68,25.32,1.75,4.92.33,11.02,2.01,15.78.51,1.44,3.37.91,4.01,2.7-.28,1.01.16,2.77,0,4-.4.29-.93.98-1,1-1.6.36-12,.21-13.05-.45-3.41-2.18.92-5.33,1.55-6.54.97-1.85.77-11.96-.63-12.88-1.12-.74-11.37-1.28-13.39-1.13-1.89.14-7.89,1-8.36,2.63-.83,2.87.03,8.87-1.1,12.36,4.67-.05,9.53,2.42,4.98,7.02-4.13-.17-8.88-.2-13,0l-2-2ZM794,1044c.44-.44-.84-11.12-1.17-12.33-1.39-5.05-13.88-2.46-16.29,1.37-.83,1.32-2.93,10.56-2.54,10.96.19.2,4.02-.97,5.44-1.05,2.73-.16,6.36-.16,9.08.03,1.31.09,4.98,1.52,5.47,1.02Z"/>
  <path class="cls-5" d="M809,1064c.1-.35,1.6-1.01,1.62-2.43.1-5.78-2.11-13.97-2.64-20.05-.26-2.97.64-7.36-.1-9.9-.81-2.8-5.86.31-5.64-4.97.2-4.6,11.95-5.53,14.83-2.23,2.85,3.27-1.28,4.18-1.9,6.24-.85,2.83.25,7.24-.17,10.33h15c-.26-3.3.74-11.28-1.26-13.76-.5-.62-2.2-.52-2.62-1.84-.27-.85-.4-3.74-.02-4.3,1.08-1.57,13.73-1.54,14.79,0,.45.65.25,4.19-.33,4.98-.89,1.22-3.45.43-3.63,1.47-.4,2.29.95,5.32,1.1,7.9.35,5.93-1.5,11.19-1.06,17.07,1.23,1.94.61,8.62,1.13,9.36.18.25,3.82,1.28,4.88,2.12v3c-.36.41-.54.64-1,1s-1.41.75-2,1l-2.35.16-.65.84c-1.59.12-7.22-.1-7.9-1.09-1.67-2.44,2.01-6.02,1.99-8.38-.01-1.6-.97-3.25-1.1-5.01-.12-1.52.3-7.22.02-7.52-.7-.75-5.04,1.06-6.5,1.06-1.38,0-4.92-1.64-5.49-1.06-1.21,1.23,1.82,12.38.99,15,1.78.18,4.59-.55,6.06.44,1.1.73,1.41,4.63.84,5.46-.88,1.28-15.26,2.43-16.9-.9.3-1.05-.3-2.95,0-4Z"/>
  <path class="cls-27" d="M724,869c-.1-4.86.74-4.05-1.74-7.19-.6-.75-.65-17.39-.28-19.2.17-.82,1.89-.41,2.05-1.23.56-2.72-.65-16.76-.03-17.39.32-.32,4.11.28,5.4.04.51-.1,1.19-4.24,2.59-2.03.17.28-.43,1.83.62,2.03,4.66.88,12.22-1.02,16.78-.07.57.12.11,3.14,6.11,2.01,1.89-.35,2.77-2.3,4.99-2.03.44.05-.38,2.7,5.51,2.04l-42,43Z"/>
  <path class="cls-5" d="M738,1071c-8.93-2.92-8.73-8.5-11.99-10.53-1.69-1.04-5.23.62-4.8-3.81.35-3.55,5.65-4.87,8.69-5.14,8.01-.71,2.57,7.05,5.31,9.28.42.34,9.49,2.92,10.48,3.06,1.79.27,3.32-4.25,3.32-5.37v-23c0-.66-1.63-1.39-2.48-1.52-2.88-.42-13.24-.46-16.02.01-2.39.41-3.07,3.06-4.99,3.06-5.4,0-3.72-12.82-1.9-13.1,5.64-.88,5.01,2.9,6.04,3.09,5.76,1.07,22.05-2.09,25.87,1.94,2.93,3.1,2.71,15.17,2.51,19.53-.08,1.66-.88,3.24-1.04,4.96-.72,7.58.6,11.68-5.98,17.52-.24.22-1.69-.01-2,1-1.42-.13-3.61-.17-5,0-1.76-.34-4.42-.48-6-1Z"/>
  <path class="cls-6" d="M809,1068c1.64,3.33,16.01,2.18,16.9.9.57-.83.26-4.73-.84-5.46-1.47-.98-4.28-.26-6.06-.44.82-2.62-2.21-13.77-.99-15,.57-.58,4.11,1.05,5.49,1.06,1.47,0,5.8-1.81,6.5-1.06.28.3-.14,6-.02,7.52.14,1.75,1.09,3.41,1.1,5.01.02,2.36-3.66,5.94-1.99,8.38.68.99,6.31,1.21,7.9,1.09,2.19-.16,1.86-.52,3-1,.59-.25,1.56-.65,2-1l-1,4c-21.76.12-43.59.9-65,0,4.54-4.6-.31-7.07-4.98-7.02,1.13-3.49.27-9.49,1.1-12.36.47-1.63,6.47-2.49,8.36-2.63,2.02-.15,12.27.39,13.39,1.13,1.4.92,1.59,11.03.63,12.88-.63,1.21-4.96,4.36-1.55,6.54,1.04.66,11.44.81,13.05.45.77.02.91-.3,1-1,.37-.27,1.96-1.86,2-2Z"/>
  <path class="cls-6" d="M847,1069c3.22-.44,15.38,1.18,11.02-5.53-2.97-4.58-1.54-4.11-2-9-.16-1.73-.95-3.27-1.06-4.96-.27-4.13,5.2.96,6.72,1.29s4.53-.16,5.2.3c.58.4,5.56,11.83,5.69,12.84.18,1.41-2.9,3.24-.35,5.82,1.55,1.57,8.81,1.71,10.78.72.88-.44,2.08-2.5,2.49-2.5.58,0,1.11,1.64,1.5,1.99,1.36,1.22,2,1.24,4,1,.07.31-.1.7,0,1-15.65.02-31.35-.03-47,0-.72-1.76,1.5-2.8,3-3Z"/>
  <path class="cls-8" d="M516,1075c-20.83.19-43.44.86-65,1-.55-3.04,1.53-1.92,3.47-2,18.13-.73,37.81-.31,56.03,0,1.88.03,4.06-.61,5.49,1.01Z"/>
  <path class="cls-8" d="M291,1077c-18.84.13-39.4,1.07-59,1-.55-3.04,1.53-1.92,3.47-2,16.19-.65,33.76-.28,50.03,0,1.88.03,4.06-.61,5.49,1.01Z"/>
  <path class="cls-8" d="M397,1076c-15.81.13-33.44.88-50,1-.55-3.04,1.53-1.92,3.47-2,13.29-.53,27.68-.23,41.03,0,1.88.03,4.06-.61,5.49,1.01Z"/>
  <path class="cls-8" d="M729,1073c-16.28,1.66-33.34.92-50,1-.55-3.04,1.53-1.92,3.47-2,13.36-.53,27.59-.12,41.03,0,1.67.02,4.55-.7,5.5,1Z"/>
  <path class="cls-8" d="M607,1074c-12.8.11-27.43.88-41,1-.55-3.04,1.53-1.92,3.47-2,10.38-.42,21.6-.18,32.03,0,1.88.03,4.06-.61,5.49,1.01Z"/>
  <path class="cls-8" d="M167,521c3.04-.55,1.92,1.53,2,3.47.36,8.99-.82,18.06-1,26.53-1.7-.95-.98-3.83-1-5.5-.09-8.16,0-16.35,0-24.5Z"/>
  <path class="cls-8" d="M169,745c3.04-.55,1.92,1.53,2,3.47.22,5.58.1,11.44,0,17.03-.03,1.88.61,4.06-1.01,5.49-.07-7.76-.93-17.42-1-26Z"/>
  <path class="cls-8" d="M170,856c3.04-.55,1.92,1.53,2,3.47.22,5.58.1,11.44,0,17.03-.03,1.88.61,4.06-1.01,5.49-.07-7.76-.92-17.42-1-26Z"/>
  <path class="cls-8" d="M168,639c3.04-.55,1.92,1.53,2,3.47.19,4.63.08,9.39,0,14.03-.03,1.88.61,4.06-1.01,5.49-.05-6.73-.95-15.41-1-23Z"/>
  <path class="cls-8" d="M171,975c3.04-.55,1.92,1.53,2,3.47.15,3.79.72,9.19-1,12.53-.04-4.63-.95-10.74-1-16Z"/>
  <path class="cls-7" d="M304,762c.11.28-.1.7,0,1,.33.97.66,2.17,1,3,4.08,2.26,6.26,4.49,9.5,7.99,1.13,1.22,2.61,2.01,2.5,4.01-4.33-2.32-10.13-7.37-12-12-1.78-.99-2.71-.72-4.55-2.98-1.15-1.41-1.03-2.35-1.45-3.02l5,2Z"/>
  <path class="cls-8" d="M744,1072c-.13.02-.91,1-2.48,1.11-2.27.15-3.05-1.03-3.52-1.11v-1c1.58.52,4.24.66,6,1Z"/>
  <path class="cls-15" d="M809,1068c-.04.14-1.63,1.73-2,2,.16-1.23-.28-2.99,0-4,.11-.39,1.56-1.49,2-2-.3,1.05.3,2.95,0,4Z"/>
  <path class="cls-8" d="M763,1072c-.11,0-.74.94-2,1,.04-1-.06-2.01,0-3l2,2Z"/>
  <path class="cls-11" d="M891,1070v1c-2,.24-2.64.22-4-1h4Z"/>
  <path class="cls-8" d="M751,1071v2c-1.26-.08-1.89-.99-2-1,.31-1.01,1.76-.78,2-1Z"/>
  <path class="cls-6" d="M843,1067v-3c1.75,1.38,1.31,1.49,0,3Z"/>
  <path class="cls-13" d="M929,257c.81,1.13,5.06-1.98,6.49-1.98,5.79,0,10.99,9.59,10.51,14.98,4.64-5.35,12.59-8.75,18.45-2.95,3.46,3.42,3.48,12.11,7.18,12.88,1.4.29,5.64-4.82,12.1-2.15,2.8,1.16,9.37,7.02,10.11,9.89.35,1.34-.21,3.09-1.35,3.32-2.34.49-5.49-5.69-6.96-7.03-5.43-4.97-13.47-1.84-12.36,5.29s9.56,12.68,15.47,15.6c1.35.67,6.06,1.98,6.25,2.25.28.4.24,3.75.11,3.89-1.38,1.39-10.45-3.07-12.31-4.18-4.64-2.76-8.17-6.34-11.19-10.81-1.14.21-.1,2.3-.55,2.96-.11.16-3.39.23-3.83-.07-.98-.67-.93-5.66-1.12-5.89-.2-.24-3.44,2.78-5.56,3.01-7.44.79-15.42-9.93-15.44-17.01-2.04.12-.37,3.23-1.46,5.03-.68,1.12-3.2,1.31-3.53.97-1.4-1.43,3.49-16.36-.8-22.7-.53-.79-.7-1.85-1.82-2.2-7.44-2.33-6.67,12.39-8.57,16.22-1.68,3.39-4.53,1.96-4.86-1.76-.56-6.3,4.17-15.84-.44-20.57-1.43-1.47-6.88-1.65-8.04,0-2.55,3.6-2.11,15.13-3.56,16.95-.12.15-3.79.23-3.92.08-.98-1.11.62-10.38.92-12.58.23-1.65-.19-3.36.03-4.78.05-.32,4.55-3.77,5.1-4.09,4.3-2.51,10.44-1.63,13.42,2.46,1.33,1.82,1.31,4.69,1.53,4.99ZM955.64,268.21c-4.56.52-7.04,7.08-6.61,11.2s6.46,13.28,11.05,12.13c5.34-1.34,2.91-4.57,3.14-6.91.14-1.44,1.86-2.5,1.75-5.03-.2-4.57-3.97-12-9.33-11.39Z"/>
  <path class="cls-13" d="M750.95,269.03c2.63,2.94,1.43,17.3,2.06,17.96.43.45,2.68-.91,3.6-.98,9.26-.63,24.71,12.66,22.4,22.98,2.66-1.85,2.94-5.75,5.46-8.03,6.46-5.83,17.04-2,22.05,4.01,1.11,1.33,4.23,6.1,4.47,7.53.31,1.87-.24,3.98.06,5.94,1.17,7.61,8.98,19.7-6.46,18.47-12.8-1.02-23.59-13.37-24.6-25.91l-4.52,9.97c-.88,1.34-2.27,2.47-3.96,2.03-1.86-.48-1.06-1.55-.67-2.65,3.22-9.2,7.93-12.77-.32-22.37-5.33-6.2-16.31-12.18-18.3-.26-.44,2.62-.3,12.82-2.29,14.21-.72.5-3.79.19-4.49-.88-2.21-3.41,1.93-11.58,2.47-15.64.67-5.02.06-10,.03-14.87-.01-1.81-.33-11.12.05-11.55.1-.11,2.85-.07,2.94.04ZM809.94,331.94c.87-1.2-3.06-12.11-3.7-14.68-1.04-4.2.46-5.65-3.24-9.76-4.68-5.18-14.88-7.55-17.7.28-3.29,9.12,6.13,20.75,14.69,23.74,1.91.67,8.8,2.01,9.96.41Z"/>
  <path class="cls-13" d="M712,266c-1.02,1.06-3.11-.82-4.01-1.48-3.88-2.83-7.35-7.36-12.98-5.02l18.5,17.5c.42.19.93-4.04,2.53-5.47,6.62-5.92,18.99-.91,22.84,6.1,2.16,3.93,1.4,9.36-2.36,5.36-.82-.87-1.17-2.77-2.06-3.94-6.98-9.34-19.34-8.2-16.25,6.25,1.11,5.22,8.24,12.58,12.87,15.13,2.02,1.12,7.91,2.72,8.49,3.51,1.02,1.4.22,3.78-1.11,4.03-.53.1-7.05-2.24-8.14-2.78-4.75-2.36-10.34-7.39-13.15-11.85-1.16-1.85-2.54-6.54-3.17-7.35-.22-.29-4.8,2.84-6.56,3.02-5.51.55-18.84-4.64-20.23-10.71-.41-1.79-.53-7.18,2.29-6.3,1.68.52,1.54,4.71,2.61,6.4,1.45,2.28,8.6,5.36,11.36,5.64,6.2.61,8.57-1.13,4.54-6.54s-17.4-11.47-17.09-19c.24-5.79,10.08-3.79,13.99-1.91,2.19,1.05,9.58,6.82,7.09,9.4Z"/>
  <path class="cls-10" d="M926.73,305.74c-1.05,1.16-4.02,1.73-4.73,2.27-.53.4,6.46,5.98,3.5,11.99-3.12,6.33-14.36,1.4-19.19-.8-2.01-.92-5.09-4.54-7.36-2.77-.61.47-3.43,7.59-5.44,7.56-.21,0-2.22-2.05-2.4-2.65-.73-2.44,4.38-5.79,4.73-9,.16-1.45-1.3-2.64-1.63-4.03-1.79-7.32,3.64-3.11,4.75-4.37.42-.47,2.64-10.29,3.31-12.19.51-1.47,4.12-4.82-.75-3.75-1.8.4-3.08,2.5-4.99,2-2.7-.71-1.8-4.52,1.44-5.55,7.76-2.47,19.8.79,25.04,7.06,2.36,2.82,6.46,11.25,3.74,14.23ZM923,303c.58-.56-.79-4.19-1.26-5.24-2.33-5.18-9.01-9.28-14.74-8.77,1.01,2.27-2.77,11.16-1.98,11.98.68.7,17.33,2.66,17.98,2.03ZM919.69,312.31c-3.04-3.29-18.86-10.42-18.49-2.79.17,3.49,17.61,11.24,20.8,8.47.88-.76-1.48-4.79-2.31-5.69Z"/>
  <path class="cls-13" d="M1001,285c6.23-1.4,3.1,6.92,4.01,8,.33.39,3.28-3.05,5.33-2.82,6.85.78,17.63,15.52,15.66,22.82,5.03-.72,8.06,3.95,8.94-2.55.25-1.8-.8-8.14,2.55-7.45,3.17.66.28,11.71,1.95,14.06.94,1.33,9.96,3.66,11.93,4.85,2.09,1.27,1.98,4.38-1.8,4.06-2.29-.19-10.03-4.52-10.56-3.97-1.2,1.25,2.98,12.23,4.53,13.96.92,1.02,3.03,1.46,3.39,2.61.39,1.25-.4,3.22-1.44,3.43-3.99.8-9.17-9.65-10.04-12.95-.5-1.9-.95-9.59-2.03-10.15-11.19-5.75-7.09,3.07-10.92,7.09-3.3,3.47-3.9.18-3.27-3.27.97-5.27,4.07-7.09,2.57-14.03-.64-2.95-7.88-13.09-10.4-13.65-2.92-.65-4.84,7.5-5.15,9.69-.46,3.3.82,11.22.3,12.24-1.97,3.83-5.54.58-5.54-1.49v-30.5Z"/>
  <path class="cls-13" d="M922,437c-.98.91,12.23,20.67,13.47,23.02.99,3.85,1.84,7.18-2.88,5.88-1.53-.43-2.06-4.87-3.06-6.94-3.68-7.68-10.13-15.01-13.55-22.95-1.35-.29-1.11,1.03-1.48,2-1.27,3.38-2.88,13.29-6.03,13.99-1.36.3-2.58-1.31-2.55-2.5.73-3.41,10.44-29.67,9.07-30.49-.99-.6-4.5,1.55-2.88-3.38,1.38-4.23,12.54-2.53,16.11-1.36,8.3,2.71,14.92,12.56,10.55,21.02-3.96,7.68-16.06,1.05-16.78,1.72ZM917.09,430.91c.48.69,14.92,4.43,16.3,4.03,1.57-.46,2.59-5.63,2.42-7.2-.31-2.88-3.94-7.25-6.44-8.61-1.43-.78-9.88-2.68-10.37-2.13-.2.23.15,3.24-.06,4.44-.41,2.28-3.1,7.7-1.85,9.47Z"/>
  <path class="cls-13" d="M1005.01,493l9.52-14.97c1.24-2.75,2.88-5.32,3.78-8.23.42-1.37.59-4.58.74-4.77.12-.16,3.83-.17,3.96-.03,2.23,2.43-4.53,15.44-6.18,18.32-1.75,3.05-4.86,5.8-6.03,8.97-1.28,3.46.43,5.87-4.07,4.5-9.49-2.89-11.39-15.62-10.73-24.3.36-4.78,4.91-13.69,1.75-17.23-.98-1.1-5.47-3.38-7.02-3.11-9.14,1.61-11.07,27.78-13.85,29.72-.45.32-3.73.27-3.87.13-1.07-1.08,5.92-22.86,7.59-25.9,1.87-3.41,6.2-8.23,10.13-8.95,2.6-.48,9.74,4.03,11.3,6.34,4.11,6.06.82,8.16-.58,13.47-2.14,8.16-.4,18.69,3.56,26.05Z"/>
  <path class="cls-13" d="M892.83,418.82c2.68-1.89,2.04-14.76,6.57-13.78,5.94,1.28-.28,10.9-1.15,13.71-1.74,5.63-4.06,14.27-5.01,19.99-.26,1.59-.04,6.03-.25,6.26-.13.15-3.86.15-3.99,0-2.12-2.38,3.99-20.3,3-21-.39-.28-6.93-1.04-9.39-2.12-4.22-1.84-8.57-5.91-12.12-8.88-2.35,3.65-1.64,15.41-6.45,16.58-2.65.65-4.96-2.71-4.96-5.04.01-8.68,8.02-20.18,7.37-29.54,1.01-1.73,3.9-1.29,4.45.63,1.15,4.03-3.08,7.33-.37,11.31,1.96,2.88,12.09,10.65,15.43,11.6,1.53.44,5.84,1.02,6.88.28Z"/>
  <path class="cls-13" d="M847.74,417.72c-1.23,1.17-4.34,1.79-4.74-.24-.33-1.65,7.31-10.27,4.53-15.51-.79-1.49-9.72-6.98-11.84-8.16-2.51-1.4-11.91-6.35-14.05-5.74-3.03.86-6.13,15.74-8.15,18.92-.76,1.19-3.12,1.39-3.48,1.01-1.59-1.64,3.65-15.1,4.81-17.69,1.88-4.18,5.02-10.64,8.85-13.15,8.66-5.68,20.91-1.96,25.52,7.15,4.17,8.24,4.55,20.09,1.33,28.7-.32.84-2.24,4.2-2.78,4.71ZM848,396c.38-.4-2.05-9.29-2.79-10.7-3.06-5.87-13.04-8.21-18.58-5.16-7.3,4.03,2.18,5.23,5.07,6.67,1.93.78,15.66,9.88,16.3,9.2Z"/>
  <path class="cls-10" d="M877,304c-1.45-1.46,4.31-11.03,3-11.99-.16-.12-2.73-.02-4.03-.47-6.83-2.32-15.19-6.87-22.22-9.79-1.01-.42-2.11-1.73-2.25-1.74-.51-.01-5.16,8.2-5.3,8.69-1.01,3.74,1.85,7.68-3.6,6.2-2.43-.66-1.72-4.95-1.14-6.94,1.21-4.15,10.55-18.34,14.03-20.96,11.98-9.04,26.9,6.66,28.45,18.57.52,4,.65,15.58-2.91,17.97-.81.55-3.77.73-4.03.47ZM878.99,288c.35-8.98-6.73-16.97-14.98-19.59-2.83-.9-10.93,6.11-11,8.09-.05,1.42,23.32,8.81,25.98,11.5Z"/>
  <path class="cls-13" d="M857,246c.28-.29-.17-5.82.46-8.04,2.14-7.48,11.97-16.85,18.42-8.33,2.02,2.67,5.55,12.95,1.5,14.25-4.98,1.59-14.95-4.22-16.38-2.87-.22.21,1.11,5.14,1.54,5.96,2.69,5.08,14.93,7.65,15.46,9.55,1.45,5.24-11.13-.18-13.34-1.66-2.67-1.79-4.73-4.73-7.16-6.84-.94-.03-.03,1.84-1.08,2.05-6.05,1.21-13.15-6.9-13.38-12.64-.11-2.84,1.57-12.3,2.22-15.65.28-1.43.92-5.34,2.25-5.75,5.12-1.57.62,13.72.48,15.48-.36,4.44-.52,9.66,3.48,12.55.9.65,5.07,2.45,5.53,1.97ZM871.85,231.17c-4.04-2.81-9.47,5.34-8.85,5.83.19.15,2.22-.08,3.27.23,1.62.47,7.7,3.8,8.72,2.78.76-.76-2.36-8.28-3.15-8.83Z"/>
  <path class="cls-13" d="M689,307c-.13.15-.16,3.86,0,3.99.23.18,4.06.16,5.82.7,3.14.96,7.76,4.69,9.63,7.37,12.8,18.36-8.78,35.69-23.97,16.97-1.18-1.45-4.09-4.88-.97-6.02,2.84-1.04,2.28,1.13,3.46,2.48,4.45,5.12,10.82,10.07,17.59,5.56,7.44-4.95.74-19.97-6.25-21.85-4.06-1.09-10.98,1.04-10.07-5.43,1.41-9.98,2.35-9.78,10.76-6.26,5.09,2.13,15.18,7.32,19.71,10.29,2.58,1.69,4.05,3.86-.06,5.09-3.1-.96-24.67-13.94-25.64-12.88Z"/>
  <path class="cls-10" d="M808,254c-.17-3.15-.54-5.43,2.95-6.55s14.25,1.43,17.98,3.13c18.36,8.35,23.84,35.15-5.47,25.47-1.58-.52-9.11-4.42-9.45-4.04-.73.79-.63,7.93-3.5,7-.81-.26-2.47-2.35-2.5-3.46-.05-1.7,3.35-11,3.99-14.54,2.89-1.36,1.06-7.05,3.51-7.99,3.42-1.33,2.5,2.27,2.49,3.99.86,2.65-3.21,9.12-1.91,10.92.28.38,7.5,3.44,8.67,3.82,2.98.99,14.56,3.97,14.92-1.19.42-6.04-8.7-13.69-13.69-16.08-1.08-.52-2.29-.23-2.99-.47-.39-.14-1.13-1.49-2.65-1.82-1.74-.37-6.13-.52-7.82-.23-1.2.2.96,5.49-4.53,2.05Z"/>
  <path class="cls-13" d="M918.01,367c-.4.47,1.44,7.31,1.95,8.55,2.69,6.62,10.53,12.5,17.06,14.97.99.38,2.84.38,2.99.48,1.18.79-.16,5.1-5.05,3.54-9.45-3.01-19.95-13.87-20.97-24.03-1.03-10.18,3.59-21.28,15.49-19.48,6.41.97,14.52,16.16,12.07,20.97-3.95,7.76-22.69-5.98-23.52-5.01ZM937,370c1.62-1.66-4.06-17.34-12.32-14.85-.91.27-5.23,4.58-5.55,5.48-1.07,3,1.17,2.29,3.24,3.49s13.15,7.41,14.64,5.88Z"/>
  <path class="cls-13" d="M800.69,402.7c-5.44,5.47-15.57,1-20.13-3.76-2.46-2.57-8.98-16.2-5.6-18.47.84-.57,2.88-.67,3.03-.47.26.35,1.33,6.79,1.97,8.54,3.69,10.18,15.58,18.78,21.09,5.01,2.61-6.52,3.04-14.52,5.95-21.11.56-2-1.32-1.36-2.69-2.21-3.82-2.38-8.19-4.89-12.3-6.74-1.71-.77-9.35-2.85-9.88-3.62-.31-.45-.27-3.73-.13-3.87.85-.85,9.53,2.51,11.26,3.24,4.58,1.92,12.99,6.21,17.08,8.92,5.01,3.32,1.8,3.94.45,7.14-2.57,6.1-2.88,12.6-5.29,18.71-.8,2.03-3.44,7.31-4.81,8.69Z"/>
  <path class="cls-13" d="M888,344c-.94.88,3.7,6.9,4.6,7.94,1.56,1.8,4.79,3.88,6.43,5.53,3.05,3.08,17.76,15.18,9.98,19.04-5.47,2.71-20.91-3.99-24.48-8.54-.86-1.09-3.32-6.46-3.23-7.5.05-.55,2.03-2.45,2.2-2.46,1.18-.03,3.57,5.35,4.49,6.5,3.17,3.95,9.05,6.88,13.95,8.05,3.64.87,5.74.87,3.1-3.1-4.47-6.7-21.44-16.14-22.05-25.01-.75-10.9,18.07-2.99,21.85,3.22,1.59,2.61.93,5.28-2.27,4.27-1.1-.35-1.59-2.44-2.64-3.37-1.83-1.63-10.08-6.31-11.93-4.56Z"/>
  <path class="cls-10" d="M792.76,238.25c-1.22-1.05-7.31-2.51-8.74-1.8-3.11,1.56-.72,4.84.98,7.05,4.68,6.1,14.09,9.57,14.09,18.99,0,3.91-1.47,6.86-5.63,7.46-9.19,1.33-24.76-.06-23.4-12.4.08-.69.77-3.46,1.44-3.56,5.23-.78,1.88,4.93,2.94,7.01,1.25,2.47,9.32,4.89,12.08,5.04,1.25.07,6.86-.65,7.41-1.12.65-.55-.08-4.66-.48-5.9-1.09-3.35-9.04-8.65-11.42-11.76-7.54-9.84-4.7-17.2,8.44-15.23,3.34.5,10.42,6.96,9.53,10.43-1.38,5.35-6.85-3.88-7.24-4.22Z"/>
  <path class="cls-13" d="M740,337c.29.3,5.93-2.96,5.74,3.3-.17,5.28-1.3,13.28-4.29,17.65-4.9,7.16-10.21,5.89-17.14,2.24-11.34-5.98-16.12-21.06-6.35-30.73,5.8-5.74,18.18-7.15,21.26,1.82.68,1.99.59,5.51.78,5.72ZM737.1,340.9c-1.08-.72-.67-6.31-2.04-8.46-6.02-9.47-20.71,1.48-17.87,13.87,1.12,4.88,12.49,13.89,17.13,12.56,3.5-1.01,6.18-9.14,6.6-12.45,1.08-8.5-1.62-4.06-3.81-5.52Z"/>
  <path class="cls-13" d="M978,447c-1.6,1.6-10.67-6.26-13.72-6.86-1.66-.32-2.67.44-3.97.51-.97.05-2.03-.61-2.7-.48-1.8.36-6.55,10.66-8.56,12.4-.47,2.01.41,1.15,1.23,1.63,2.85,1.68,14.04,5.13,14.72,7.31.38,1.22-1.14,2.54-2.48,2.51-2.29-.05-14.72-6.86-15.52-6.01-.31.33-.13,6.76.5,8,.5.99,3.08,3.13,4.16,3.84,1.86,1.24,14.5,5.09,11.34,8.15-1.51,1.47-10.7-2.55-12.69-3.8-10.32-6.49-10.03-14.12-4.72-24.11.95-1.79,8.69-14.14,9.4-14.65.45-.32.89-.52,1.45-.43,3.79,1.64,7.43.36,11.29,1.77,1.44.52,8.3,4.74,9.27,5.73,1.04,1.05,1.5,3.99,1,4.49Z"/>
  <path class="cls-13" d="M740,177.01c-.25-.33.17-4.45-1.21-5.8-.5-.49-5.44-2.14-6.37-2.2-3.7-.23-7.4,4.07-6.34,7.37,1.24,3.83,22.05,10.57,17.42,19.63-.3.59-4.89,5.11-5.54,5.45-6.98,3.67-17.87-1.91-18.03-9.95-.08-3.97,3.11-3.92,4.08-1.81.89,1.93.39,3.07,2.44,5.34,6.34,7.01,15.73.31,11.61-4.61-2.48-2.96-9.7-6.27-12.99-9-5.32-4.41-5.18-7.97-.52-13.37,5.56-6.44,20.57-2.4,19.5,6.44-.29,2.4-3.42,3.35-4.05,2.51Z"/>
  <path class="cls-13" d="M845.8,349.78c-2.92,2.81-4.76-.45-3.03-4.51,1.57-3.66,4-5.73,4.18-10.87.29-8.79-9.18-19.83-18.47-18.43-3.15.48-3.9,7.55-4.4,10.61-.42,2.61-.45,11.74-2.08,12.92-2.99,2.16-3.69-5.16-3.69-6.83,0-1.12.74-2.57.74-4.13,0-2.97-.82-14.9.91-16.1,1.5-1.04,2.9.38,4.39.29,3.03-.17,3.88-2.4,8.7-1.3,10.9,2.48,18.94,14,17.97,25.08-.19,2.16-3.99,12.08-5.22,13.26Z"/>
  <path class="cls-10" d="M1000,384c-3.24,1.57-6.28,3.09-10,5-6.39,3.27-13.31,6.72-19,11-2.26,1.7-2.83,1.64-5,3-1.66,1.04-10.03,6.77-10.66,6.91-1.02.22-3.33-2.06-3.33-2.41,0-.23,2.81-3.36,2.99-3.5,1.17-.89,11.3-7.81,12-8,2.36-.63,2.94-.79,5-2,4.96-2.93,10.01-5.34,15-8,1.2-.64,3.11-2,5-3,1.26-.67,3.76-2.92,4-3,3.29-1.1,4.44-1.38,8-3,6.54-2.97,13.32-5.47,19.69-8.82,6.41.33,1.98,4.41-1.64,6.37-6.3,3.4-15.06,6.07-22.04,9.46Z"/>
  <path class="cls-13" d="M783,187c1.3,1.32-2.75,11.12-1.99,12,.24.28,4.96-2.62,6.73-2.82,5.7-.63,13.97,4.27,15.82,9.76s-.7,12.91-3.71,17.4c-1.61,2.4-4.05,4.86-3.88.12.22-6.06,6.59-11.37,2.49-17.42-3.18-4.69-9.47-7.13-14.42-3.52-4.09,2.99-2.09,4.8-2.3,7.82-.04.61-1.55,5.42-1.79,5.59-1.01.69-4.41.07-4.87-1.54-.5-1.74,1.66-10.15,1.96-12.87.34-3.18-.86-12.1,1.92-14.08.77-.55,3.83-.67,4.05-.44Z"/>
  <path class="cls-10" d="M1036,397c2.48,2.54-5.02,10-4.81,12.53s11.39,3.45,12.75,4.54c.15.12.22,3.79.07,3.92-2.24,2.05-13-4.13-15.06-2.57-1.47,1.12-2.46,8.63-1.46,10.59,1.58,3.1,9.76,2.1,10.51,4.49,1.16,3.69-11.68,4.03-14.77-2.23-3.47-7.02,1.97-11.11.64-15.61-.77-2.59-7.89-4.24-6.86-8.16.96-3.66,4.41.55,5.65,1.34.65.42,4.19,2.34,4.34,2.15,1.04-1.34,2.03-6.02,4-8.51.9-1.13,3.81-3.71,5-2.49Z"/>
  <path class="cls-5" d="M1000,384c-1.78,10.56-5.85,21.13-5.48,31.98.03,1.01.73,2.52-1.02,3.02-1.37.39-2.91-.17-3.36-1.63l.37-10.35c-7.36,10.24-20.12,6.83-24.51-4.01,2.17-1.36,2.74-1.3,5-3-.97,4.62,4.6,8.78,8.59,8.99,6.34.33,9.86-9.47,11.45-14.45.46-1.45,2.75-6.24-1.04-5.54,3.72-1.91,6.76-3.43,10-5Z"/>
  <path class="cls-13" d="M826.07,218.07c.44-.3,2.59-.18,3.34.03,2.16.6,1.88,5.42,1.57,7.38-.7,4.36-3.25,3.56-.37,9.44.65,1.33,5.57,6.38,1.89,7.1-3,.58-4.88-4.58-6.12-4.94s-3.92,1-5.87,1.03c-4.49.06-10.9-5.62-12.26-9.83-1.72-5.34-.44-12.7,1.69-17.82,1.33-3.21,4.57-3.21,5.05-.88.15.71-2.64,7.76-2.9,10.02-.47,4.07-.5,7.36,2.37,10.47,4.14,4.48,8.09,5.92,10.12-1.02.78-2.67-.42-3.58-.31-5.38.03-.55,1.57-5.41,1.81-5.58Z"/>
  <path class="cls-13" d="M768,200c-.14.14-3.43.18-3.87-.13-.29-.2-1.52-4.56-2.66-5.84-3.97-4.5-11.3-1.07-10.32,4.25.53,2.91,5.9,9.14,8.48,10.59,2.32,1.31,9.84,1.89,10.37,3.64,1.23,4.05-8.28,1.96-10.24,1.24-7.47-2.75-16.46-13.81-11.21-21.7,5.56-8.35,16.32-4.61,18.99,3.92.3.95.85,3.64.46,4.04Z"/>
  <path class="cls-5" d="M992,383c-1.89,1-3.8,2.36-5,3-5.76-5.15-15.35.62-15,8-2.06,1.21-2.64,1.37-5,2,1.02-13.87,12.92-20.66,25-13Z"/>
  <path class="cls-13" d="M955,404c-.36.37-2.72.18-3.48-1.02-2.28-3.58-1.03-9.28-2.48-13.39,1.58-2.79.56-10.58,1.97-12.6.14-.21,2.16-.09,3.02.48,2.23,1.48.07,4.79-.05,7.01-.18,3.4-.21,7.67-.02,11.07.1,1.78,1.72,7.75,1.05,8.45Z"/>
  <path class="cls-13" d="M1001,349c-1.82,1.81-5.79-2.43-7.28-3.21-3.91-2.05-10.17-2.99-14.03-4.76-2.45-1.12-2.02-4.5,2.74-3.98,2.53.27,16.96,6.23,18.1,7.93.55.81.72,3.77.46,4.03Z"/>
  <path class="cls-13" d="M954.53,307.03c7.66-2.25-1.32,11.87-2.06,13.94s.12,7.2-3.96,6.03c-2.25-.65-.53-6.55-.03-8.02s5.41-11.76,6.05-11.95Z"/>
  <path class="cls-11" d="M823,254c-3.44-.94-2.68,1.69-5,3,0-1.73.92-5.32-2.49-3.99-2.44.95-.62,6.64-3.51,7.99.2-1.1,1.18-4.82,1-5-.38-.37-4.62.36-5,0-.13-.12.04-1.41,0-2,5.49,3.44,3.33-1.84,4.53-2.05,1.69-.29,6.08-.14,7.82.23,1.52.33,2.26,1.68,2.65,1.82Z"/>
  <path class="cls-13" d="M996,380c1.56-2.16,1.99-6.98,4.58-7.92,4.27-1.54,1.16,4.19,3.42,4.92-3.56,1.62-4.71,1.9-8,3Z"/>
  <path class="cls-13" d="M953.51,369c2.1-.45,5.12,4.09,1.99,4.99-3.85,1.11-4.54-4.44-1.99-4.99Z"/>
  <path class="cls-13" d="M948,335c1.64,1.64-2.54,6.34-3.99,2.49-1.3-3.44,3.57-2.92,3.99-2.49Z"/>
  <path class="cls-24" d="M907.26,952.74c-1.18-1.05-3.35-5.93-3.81-7.68-7.15-27.15-7.5-56.47-2.01-84.11,3.61-4.05,3.84-11.59,9.5-13.5,3.61-1.22,7.48.63,9.29,3.83,1.29,2.29,3.76,12.58,3.83,15.26.07,2.23-1.03,3.99-1.08,5.95-.6,23.8-.25,51.81-6.25,74.75-.61,2.33-1.45,6.49-4.24,6.83-1.47.18-4.13-.34-5.23-1.32Z"/>
  <path class="cls-2" d="M222,685c.21.29-.06,1.77.97,2.53,1.11.81,2.43.23,3.03.47,1.71.68,8.03,7.2,9,9,.17.31-.33,1.44.12,1.88s1.57-.05,1.88.12c1.71.91,2,1.49,3,3,3.83,5.82,11.9,14.83,18,18,.44.85.01,1.87,1.45,3.07,1.05.88,1.98.63,2.55.93,1.48,2.85,2.76,6.34,7,6,.35.33.66.68,1,1,.36,4.28,6.72,10.64,11,11,4.39,4.48,10.57,8.69,14,14,.62.95-.06,3.39,3,3,.16.29.74.58,1,1,.42.67.3,1.61,1.45,3.02,1.84,2.26,2.78,1.99,4.55,2.98,1.87,4.63,7.67,9.68,12,12,.25.14.72-.13,1,0-.46,2.34.75,3.04,1.98,4.52,2.56,3.07,6.49,6.97,10.02,8.48.27.12.7-.11,1,0-.05,2.38-.67,3.47,2,3,1.76,1.89,10.65,10.13,13,12-.31,1.99.01,2.3,2,2,.61.78,1.84,1.39,3,3,4.64,6.41,12.2,14.79,18.48,20.02,1.48,1.23,2.18,2.44,4.52,1.98.13.28-.14.75,0,1,2.02,3.77,5.06,7.17,8.48,10.02,1.48,1.23,2.18,2.44,4.52,1.98,1.01,1.05,1.96,1.99,3,3-.22,2.9.25,3.59,3,4,.32.05.67-.03,1,0-.3,1.99.01,2.31,2,2,.15.32,4.4,4.49,5,5-.05,2.01.99,3.16,3,3,.16.2,2.83,2.87,3,3-.36,2.94.38,1.65,2,2,1.38,3.79,3.34,5.57,7,7,.19.49-.06,1.31.46,2.03.81,1.12,1.82.69,2.54.97,1.66,4.24,7.88,10.1,12,12,3.38,1.55,4.31,3.36,7,6-.4,3.63.75,3.11,3,4,3.3,1.3,2.24,1.53,4,3-.48,3.67,2.8,5.58,6,6,.04.06.94.96,1,1-.36,2.94.38,1.65,2,2,1.71,4.73,2.8,3.88,6,6,1.21.8,1.66,1.76,2,2-.23,2.14-.14,2.23,2,2,.04.06.94.96,1,1-.18,2.9,1.37,2.37,3,3,.9,2.21.34,3.41,4,3,.12.3-.13.74,0,1,1.77,3.68,5.22,7.31,8.48,10.02,1.48,1.23,2.18,2.44,4.52,1.98.16.16-.16.89,0,1-.45,2.68.61,2.03,3,2,3.88,3.95,11.03,9.26,13,14,1.12,2.7,3.46,4.07,6,5,1.7,4.73,8.74,10.48,13,13,.47.28.73.53,1,1,1.02,1.73,1.06,3.42,3.49,5.06,1.13.76,2.03.67,2.51.94,2.85,5.14,9.76,12.33,15,15,.89,2.24.36,3.4,4,3,3.71,3.19,6.57,6.64,10,10-.36,3.33,2.68,6.36,6,6,.35.32.66.7,1,1l.5,4c-4.65.2-9.37-.27-14.02-.02-90.67,4.93-184.06-1.06-275.01,2.02-1.95.07-4.02-1.03-3.47,2-4.98-.07-10.02.12-15,0-.09,0,.24-.95-1.48-.99-10.78-.28-22.02.96-32.52-1.01-.6-5.75-.17-14.02,0-20,.59-20.04,1.7-41.76,1-62.53-.07-1.95,1.03-4.02-2-3.47.09-9.98-.12-20.02,0-30,.21-16.71,1.59-35.03,1-52.53-.07-1.95,1.03-4.02-2-3.47.09-11.32-.09-22.68,0-34,.22-26.97,1.94-55.81,1-83.53-.07-1.95,1.03-4.02-2-3.47.03-2-.04-4,0-6,0-.13,1.02-.83,1.06-2.4.26-12.69-.31-25.41-.06-38.1-.11-.87,1.94-.59,2-.5Z"/>
  <path class="cls-7" d="M563,1019c.19.17,1.28.04,1.95.53,2.39,1.76,3.54,3.32,3.05,6.46-48.17.25-96.37-.3-144.55-.04-50.63.27-101.65,1.75-152.45,1.05-.55-3.03,1.53-1.93,3.47-2,90.95-3.08,184.34,2.91,275.01-2.02,4.64-.25,9.36.22,14.02.02l-.5-4Z"/>
  <path class="cls-7" d="M219,732c3.03-.55,1.93,1.53,2,3.47.94,27.72-.78,56.56-1,83.53-1.62-1.43-.97-3.61-1.01-5.49-.52-26.88-.41-54.63,0-81.51Z"/>
  <path class="cls-7" d="M221,939c3.03-.55,1.93,1.53,2,3.47.7,20.77-.41,42.49-1,62.53-1.62-1.43-.97-3.61-1.01-5.49-.39-20.11-.17-40.4,0-60.51Z"/>
  <path class="cls-7" d="M220,853c3.03-.55,1.93,1.53,2,3.47.59,17.5-.79,35.82-1,52.53-1.62-1.43-.97-3.61-1.01-5.49-.33-16.79-.13-33.72,0-50.51Z"/>
  <path class="cls-7" d="M222,685c.35.35,3.8.68,4,3-.6-.24-1.93.34-3.03-.47-1.03-.76-.75-2.24-.97-2.53-.06-.08-2.12-.37-2,.5-.25,12.69.32,25.41.06,38.1-.03,1.57-1.05,2.27-1.06,2.4-1.7-.95-.99-3.83-1-5.5-.14-12.83.1-25.68,0-38.5,4.02-1.05,3.32,2.3,4,3Z"/>
  <path class="cls-7" d="M256,1027l-5.49,1.01c-8.09-.85-18.23,1.12-26.02,0-2.18-.31-2.29-1.11-2.49-3.01,10.5,1.97,21.75.73,32.52,1.01,1.71.04,1.39.99,1.48.99Z"/>
  <path class="cls-7" d="M355,812c4.23,7.59,16.36,15.22,19,21-2.34.46-3.04-.75-4.52-1.98-6.28-5.23-13.84-13.61-18.48-20.02,1.25.41,2.83.53,4,1Z"/>
  <path class="cls-7" d="M527,984c4.91,2.73,12.89,9.68,15,15,2.88,1.47,2.08,1.35,4,3-3.64.4-3.11-.76-4-3-5.24-2.67-12.15-9.86-15-15-.48-.27-1.38-.19-2.51-.94-2.43-1.63-2.47-3.32-3.49-5.06,3.76.4,4.64,3.55,6,6Z"/>
  <path class="cls-7" d="M501,959l1.35.19c.87,1.23,3.92,2.37,4.47,3.02.5.58.04,1.41.18,1.79,3.72,1.36,7.67,5.91,10.51,8.99,1.14,1.24,2.53,2.01,2.49,4.01-4.26-2.52-11.3-8.27-13-13-2.54-.93-4.88-2.3-6-5Z"/>
  <path class="cls-7" d="M387,846c-2.34.46-3.04-.75-4.52-1.98-3.42-2.85-6.45-6.25-8.48-10.02,5.24,2.14,9.16,8,13,12Z"/>
  <path class="cls-7" d="M485,942c-2.34.46-3.04-.75-4.52-1.98-3.25-2.71-6.71-6.34-8.48-10.02,5.28,2.1,9.11,8.06,13,12Z"/>
  <path class="cls-7" d="M407,866c1.08.84.7-1.57,2,2,3.55.77,5.78,3.88,7,7,.49.19,1.31-.06,2.03.46,1.12.81.69,1.82.97,2.54,3.73,1.46,6.7,4.96,9.5,7.99,1.13,1.22,2.61,2.01,2.5,4.01-4.12-1.9-10.34-7.76-12-12-.72-.28-1.73.15-2.54-.97-.52-.72-.27-1.54-.46-2.03-3.66-1.43-5.62-3.21-7-7-1.62-.35-2.36.94-2-2Z"/>
  <path class="cls-7" d="M452,910c.29.17,1.41-.34,1.88.13.44.44-.03,1.46.12,1.87,2.82.61,5.46,2.98,6,6-3.2-2.12-4.29-1.27-6-6-1.62-.35-2.36.94-2-2Z"/>
  <path class="cls-7" d="M562,1018c-3.32.36-6.36-2.67-6-6,1.91,1.87,4.21,4.37,6,6Z"/>
  <path class="cls-7" d="M445,903c3.02,2.53,4.06,2.96,6,6-3.2-.42-6.48-2.33-6-6Z"/>
  <path class="cls-7" d="M441,900c-2.25-.89-3.4-.37-3-4,1.16,1.14,3.26,1.51,3,4Z"/>
  <path class="cls-7" d="M468,926c1.9.74,2.99.48,4,3-3.66.41-3.1-.79-4-3-1.63-.63-3.18-.1-3-3,2.14,1.33,1.52-.63,3,3Z"/>
  <path class="cls-7" d="M393,853c-2.75-.41-3.22-1.1-3-4,1.16,1.13,3.26,1.51,3,4Z"/>
  <path class="cls-7" d="M404,863c-2.01.16-3.05-.99-3-3,.13.11,1.24-.15,2.04.46,1.06.81.75,2.28.96,2.54Z"/>
  <path class="cls-7" d="M488,945c-2.39.03-3.45.68-3-2,1.16.76,1.16.12,3,2Z"/>
  <path class="cls-7" d="M462,920c.21.15,1.31-.31,1.81.18s.04,1.56.19,1.82c-2.14.23-2.23.14-2-2Z"/>
  <path class="cls-7" d="M394,853c3.45.28,1.24.35,2,2-1.99.31-2.3-.01-2-2Z"/>
  <path class="cls-7" d="M237,697c.18.18-.12,1.44,0,2-.31-.17-1.44.33-1.88-.12s.05-1.58-.12-1.88c.56.12,1.82-.18,2,0Z"/>
  <path class="cls-6" d="M871.87,1040.88c-.24.33-6.91,2.91-7.56,2.94-1.04.05-3.52-1.84-5.27-2.38-1.17-.36-3.86-.34-4.02-.46-.47-.38-.17-11.07.45-12.01,2.62-3.98,12.83-.48,14.97,3.09,1.01,1.68,2.43,7.41,1.43,8.82Z"/>
  <path class="cls-6" d="M794,1044c-.5.5-4.16-.93-5.47-1.02-2.72-.19-6.35-.19-9.08-.03-1.42.08-5.25,1.25-5.44,1.05-.39-.4,1.71-9.64,2.54-10.96,2.41-3.83,14.9-6.42,16.29-1.37.33,1.21,1.6,11.89,1.17,12.33Z"/>
  <path class="cls-11" d="M806,1071c.07-.02.6-.71,1-1-.09.7-.23,1.02-1,1Z"/>
  <path class="cls-21" d="M840,1069c-1.14.48-.81.84-3,1l.65-.84,2.35-.16Z"/>
  <path class="cls-7" d="M244,703c3.41,6.88,10.39,10.05,14,17,.85.44,1.87.01,3.07,1.45.88,1.05.63,1.98.93,2.55,4.35,2.26,3.95,3.12,7,6-4.24.34-5.52-3.15-7-6-.57-.29-1.5-.04-2.55-.93-1.43-1.2-1.01-2.22-1.45-3.07-6.1-3.17-14.17-12.18-18-18,1.28.38,2.75.55,4,1Z"/>
  <path class="cls-7" d="M281,742c-4.28-.36-10.64-6.72-11-11,3.81,3.64,7.32,7.24,11,11Z"/>
  <path class="cls-7" d="M298,759c-3.06.39-2.38-2.05-3-3,3.02-.34,2.34,1.83,3,3Z"/>
  <path class="cls-7" d="M330,791c-3.53-1.51-7.46-5.4-10.02-8.48-1.23-1.48-2.44-2.18-1.98-4.52,2.19,1,7.53,6.87,9.5,8.99,1.13,1.22,2.61,2.01,2.5,4.01Z"/>
  <path class="cls-7" d="M333,794c-2.67.47-2.05-.62-2-3,2.43.91,1.72,2.7,2,3Z"/>
  <path class="cls-7" d="M346,806c.2.16,1.38-.34,1.86.14.46.46-.02,1.66.14,1.86-1.99.3-2.31-.01-2-2Z"/>
  <path class="cls-21" d="M955.64,268.21c5.36-.61,9.14,6.82,9.33,11.39.11,2.52-1.61,3.59-1.75,5.03-.23,2.34,2.2,5.57-3.14,6.91-4.59,1.16-10.62-8.04-11.05-12.13s2.04-10.68,6.61-11.2Z"/>
  <path class="cls-21" d="M809.94,331.94c-1.16,1.6-8.05.25-9.96-.41-8.56-2.99-17.97-14.63-14.69-23.74,2.82-7.82,13.03-5.46,17.7-.28,3.7,4.11,2.21,5.56,3.24,9.76.63,2.57,4.57,13.47,3.7,14.68Z"/>
  <path class="cls-21" d="M923,303c-.65.63-17.3-1.33-17.98-2.03-.79-.82,2.99-9.71,1.98-11.98,5.73-.51,12.41,3.58,14.74,8.77.47,1.05,1.83,4.68,1.26,5.24Z"/>
  <path class="cls-21" d="M919.69,312.31c.83.9,3.19,4.93,2.31,5.69-3.19,2.76-20.63-4.99-20.8-8.47-.37-7.63,15.45-.5,18.49,2.79Z"/>
  <path class="cls-21" d="M917.09,430.91c-1.26-1.78,1.44-7.19,1.85-9.47.21-1.19-.14-4.21.06-4.44.49-.55,8.94,1.35,10.37,2.13,2.5,1.36,6.13,5.73,6.44,8.61.17,1.57-.85,6.74-2.42,7.2-1.38.4-15.81-3.34-16.3-4.03Z"/>
  <path class="cls-21" d="M848,396c-.64.68-14.37-8.42-16.3-9.2-2.89-1.44-12.37-2.64-5.07-6.67,5.54-3.05,15.52-.71,18.58,5.16.74,1.41,3.17,10.3,2.79,10.7Z"/>
  <path class="cls-21" d="M878.99,288c-2.66-2.69-26.03-10.08-25.98-11.5.07-1.98,8.17-8.99,11-8.09,8.26,2.62,15.33,10.61,14.98,19.59Z"/>
  <path class="cls-21" d="M871.85,231.17c.79.55,3.91,8.07,3.15,8.83-1.02,1.02-7.1-2.31-8.72-2.78-1.06-.3-3.09-.08-3.27-.23-.62-.49,4.81-8.63,8.85-5.83Z"/>
  <path class="cls-21" d="M823,254c.69.24,1.9-.05,2.99.47,4.99,2.38,14.11,10.04,13.69,16.08-.36,5.16-11.94,2.18-14.92,1.19-1.18-.39-8.4-3.44-8.67-3.82-1.29-1.8,2.77-8.27,1.91-10.92,2.32-1.31,1.56-3.94,5-3Z"/>
  <path class="cls-21" d="M937,370c-1.49,1.53-12.48-4.62-14.64-5.88s-4.31-.49-3.24-3.49c.32-.9,4.65-5.2,5.55-5.48,8.27-2.5,13.94,13.18,12.32,14.85Z"/>
  <path class="cls-21" d="M737.1,340.9c2.2,1.46,4.89-2.99,3.81,5.52-.42,3.32-3.1,11.45-6.6,12.45-4.63,1.33-16.01-7.68-17.13-12.56-2.84-12.39,11.85-23.34,17.87-13.87,1.37,2.15.96,7.74,2.04,8.46Z"/>
  <path class="cls-21" d="M990,389c3.79-.7,1.5,4.09,1.04,5.54-1.59,4.99-5.11,14.78-11.45,14.45-3.98-.21-9.55-4.36-8.59-8.99,5.69-4.28,12.61-7.73,19-11Z"/>
  <path class="cls-21" d="M987,386c-4.99,2.66-10.04,5.07-15,8-.35-7.38,9.24-13.15,15-8Z"/>
</svg>