<?xml version="1.0" encoding="utf-8"?>
<!-- Generator: Adobe Illustrator 24.1.0, SVG Export Plug-In . SVG Version: 6.00 Build 0)  -->
<svg version="1.1" id="Ebene_1" xmlns="http://www.w3.org/2000/svg" xmlns:xlink="http://www.w3.org/1999/xlink" x="0px" y="0px"
	 viewBox="0 0 813 143" style="enable-background:new 0 0 813 143;" xml:space="preserve">
<style type="text/css">
	.st0{fill:#FF6033;}
</style>
<g>
	<path class="st0" d="M46.5,120.5h0.4L79.1,9.7h15.7L127,120.5h0.4L158.8,9.7h13.8l-38,128.9h-15.3L86.9,27.9h-0.4L54.2,138.6H38.9
		L0.8,9.7h13.8L46.5,120.5z"/>
	<path class="st0" d="M256.5,93.4c0,0.9,0,1.8,0,2.7c0,1-0.1,2-0.2,3.1h-70.6c0.1,4.2,1,8.3,2.5,12c1.6,3.8,3.8,7,6.6,9.8
		c2.8,2.8,6.1,5,9.8,6.6c3.8,1.6,7.8,2.5,12.2,2.5c6.4,0,12-1.5,16.7-4.5c4.7-3,8.2-6.4,10.6-10.3l9.3,7.3
		c-5.1,6.4-10.7,11-16.8,13.8c-6.1,2.8-12.7,4.2-19.7,4.2c-6.3,0-12.2-1.1-17.6-3.4c-5.4-2.2-10-5.4-13.9-9.4
		c-3.9-4-6.9-8.7-9.2-14.2c-2.2-5.5-3.4-11.4-3.4-17.8c0-6.4,1.1-12.4,3.3-17.8c2.2-5.5,5.2-10.2,9.1-14.2c3.9-4,8.4-7.1,13.6-9.4
		c5.2-2.2,10.9-3.4,16.9-3.4c6.7,0,12.6,1.1,17.7,3.4c5.1,2.2,9.3,5.3,12.7,9.1c3.4,3.8,6,8.3,7.7,13.4
		C255.7,82.1,256.5,87.6,256.5,93.4z M244,89.4c-0.4-8-2.9-14.7-7.7-19.9c-4.8-5.3-11.6-7.9-20.5-7.9c-4.1,0-7.9,0.8-11.5,2.3
		c-3.5,1.5-6.6,3.6-9.3,6.2c-2.7,2.6-4.8,5.6-6.4,8.9c-1.6,3.3-2.5,6.8-2.7,10.5H244z"/>
	<path class="st0" d="M289.8,124.2v14.4h-12.4V1h12.4v67.2h0.4c3.6-5.6,8.4-9.8,14.2-12.6c5.8-2.8,11.8-4.3,18-4.3
		c6.7,0,12.7,1.2,18.1,3.5c5.4,2.3,10,5.5,13.8,9.5c3.8,4,6.8,8.7,8.9,14.2c2.1,5.5,3.2,11.3,3.2,17.7c0,6.3-1.1,12.2-3.2,17.7
		c-2.1,5.5-5.1,10.2-8.9,14.2c-3.8,4-8.4,7.2-13.8,9.5c-5.4,2.3-11.4,3.5-18.1,3.5c-6.2,0-12.2-1.4-18-4.2
		c-5.8-2.8-10.6-6.9-14.2-12.4H289.8z M353.4,96c0-4.7-0.7-9.2-2.2-13.4s-3.5-7.8-6.3-10.9c-2.7-3.1-6.1-5.6-10.1-7.4
		c-4-1.8-8.6-2.7-13.7-2.7c-4.7,0-9.1,0.9-13.1,2.6c-4,1.8-7.5,4.2-10.4,7.3c-2.9,3.1-5.2,6.7-6.8,10.9c-1.6,4.2-2.5,8.7-2.5,13.6
		c0,4.9,0.8,9.4,2.5,13.6c1.6,4.2,3.9,7.8,6.8,10.8c2.9,3,6.4,5.4,10.4,7.2c4,1.8,8.4,2.6,13.1,2.6c5.1,0,9.6-0.9,13.7-2.6
		c4-1.8,7.4-4.2,10.1-7.3c2.7-3.1,4.8-6.7,6.3-10.9S353.4,100.7,353.4,96z"/>
	<path class="st0" d="M489.2,111.2c-2.6,6.4-6.3,11.8-11.2,16.4c-4.9,4.6-10.7,8.1-17.6,10.6c-6.9,2.5-14.5,3.8-22.8,3.8
		c-8.5,0-16.1-1.3-22.9-3.8c-6.8-2.5-12.6-6.1-17.3-10.6c-4.7-4.5-8.4-10-10.9-16.4s-3.8-13.4-3.8-21.2V9.7h30.9v77.7
		c0,3.5,0.5,6.9,1.4,10c0.9,3.2,2.3,6,4.2,8.5c1.9,2.5,4.4,4.5,7.5,5.9s6.8,2.2,11.2,2.2s8.1-0.7,11.2-2.2c3.1-1.5,5.6-3.4,7.6-5.9
		c1.9-2.5,3.3-5.3,4.2-8.5c0.8-3.2,1.3-6.5,1.3-10V9.7h31.1V90C493.1,97.7,491.8,104.8,489.2,111.2z"/>
	<path class="st0" d="M570.1,138.6V89.1c0-2.5-0.2-5-0.6-7.3c-0.4-2.3-1.1-4.3-2.1-6.1c-1-1.8-2.3-3.2-4.1-4.2c-1.8-1-4-1.5-6.6-1.5
		c-2.7,0-5,0.5-7,1.5c-2,1-3.7,2.5-5,4.3c-1.3,1.8-2.3,3.9-3,6.3c-0.7,2.4-1,4.8-1,7.4v49.1h-30V47.9h28.9v12.6h0.4
		c1.1-1.9,2.5-3.9,4.3-5.7c1.8-1.9,3.8-3.5,6.2-4.8c2.4-1.3,4.9-2.4,7.7-3.3c2.8-0.8,5.8-1.3,8.9-1.3c6.1,0,11.2,1.1,15.5,3.3
		c4.2,2.2,7.7,5,10.3,8.5c2.6,3.5,4.5,7.4,5.6,11.9c1.2,4.5,1.7,9,1.7,13.5v56.1H570.1z"/>
	<path class="st0" d="M653.3,70.3v34.6c0,4.2,0.8,7.4,2.5,9.6c1.6,2.1,4.6,3.2,8.8,3.2c1.5,0,3-0.1,4.6-0.4c1.6-0.2,3-0.6,4.1-1.1
		l0.4,21.8c-2.1,0.7-4.7,1.4-7.8,1.9c-3.2,0.5-6.3,0.8-9.5,0.8c-6.1,0-11.2-0.8-15.3-2.3c-4.1-1.5-7.4-3.7-9.9-6.6
		c-2.5-2.8-4.3-6.2-5.4-10.2c-1.1-3.9-1.6-8.3-1.6-13.2V70.3h-14.6V47.9H624V24.1h29.3v23.8h21.3v22.4H653.3z"/>
	<path class="st0" d="M721,19c0,2.3-0.5,4.5-1.4,6.5c-0.9,2-2.1,3.7-3.6,5.2c-1.5,1.5-3.3,2.6-5.5,3.5c-2.1,0.9-4.3,1.3-6.6,1.3
		c-4.9,0-8.9-1.6-12.2-4.8c-3.3-3.2-4.9-7.1-4.9-11.6c0-2.2,0.4-4.3,1.3-6.3c0.8-2,2.1-3.7,3.6-5.2c1.6-1.5,3.4-2.6,5.5-3.5
		c2.1-0.9,4.3-1.4,6.7-1.4c2.3,0,4.5,0.4,6.6,1.3c2.1,0.9,3.9,2,5.5,3.5c1.5,1.5,2.7,3.2,3.6,5.2S721,16.7,721,19z M689,138.6V47.9
		h29.8v90.6H689z"/>
	<path class="st0" d="M795.8,74.7c-2.4-2.3-5.3-4.2-8.6-5.8c-3.3-1.6-6.7-2.4-10.4-2.4c-2.8,0-5.4,0.5-7.7,1.6
		c-2.4,1.1-3.5,3-3.5,5.6c0,2.5,1.3,4.4,3.9,5.5c2.6,1.1,6.8,2.3,12.6,3.6c3.4,0.7,6.8,1.8,10.3,3.1c3.5,1.3,6.6,3.1,9.4,5.3
		c2.8,2.2,5,4.9,6.7,8c1.7,3.2,2.5,6.9,2.5,11.3c0,5.7-1.2,10.5-3.5,14.5c-2.3,3.9-5.3,7.1-9,9.6c-3.7,2.4-7.9,4.2-12.5,5.3
		c-4.6,1.1-9.2,1.6-13.8,1.6c-7.4,0-14.7-1.2-21.7-3.5c-7.1-2.4-13-5.9-17.7-10.5l16.7-17.7c2.7,2.9,5.9,5.3,9.8,7.3
		c3.9,1.9,8,2.9,12.4,2.9c2.4,0,4.8-0.6,7.2-1.7c2.4-1.2,3.5-3.2,3.5-6.1c0-2.8-1.5-4.9-4.4-6.2c-2.9-1.3-7.5-2.7-13.7-4.2
		c-3.2-0.7-6.3-1.7-9.5-2.9c-3.2-1.2-6-2.8-8.5-4.9c-2.5-2.1-4.5-4.6-6.1-7.6c-1.6-3-2.4-6.7-2.4-10.9c0-5.5,1.2-10.1,3.5-13.9
		c2.3-3.8,5.3-6.9,8.9-9.4c3.6-2.4,7.7-4.2,12.1-5.4c4.4-1.2,8.8-1.7,13.2-1.7c6.8,0,13.4,1.1,19.9,3.2c6.5,2.1,12,5.3,16.5,9.6
		L795.8,74.7z"/>
</g>
</svg>
